<?xml version="1.0" encoding="utf-8" standalone="no"?>
<!DOCTYPE svg PUBLIC "-//W3C//DTD SVG 1.1//EN"
  "http://www.w3.org/Graphics/SVG/1.1/DTD/svg11.dtd">
<svg xmlns:xlink="http://www.w3.org/1999/xlink" width="720pt" height="360pt" viewBox="0 0 720 360" xmlns="http://www.w3.org/2000/svg" version="1.1">
 <metadata>
  <rdf:RDF xmlns:dc="http://purl.org/dc/elements/1.1/" xmlns:cc="http://creativecommons.org/ns#" xmlns:rdf="http://www.w3.org/1999/02/22-rdf-syntax-ns#">
   <cc:Work>
    <dc:type rdf:resource="http://purl.org/dc/dcmitype/StillImage"/>
    <dc:date>2025-11-07T16:34:38.278891</dc:date>
    <dc:format>image/svg+xml</dc:format>
    <dc:creator>
     <cc:Agent>
      <dc:title>Matplotlib v3.10.6, https://matplotlib.org/</dc:title>
     </cc:Agent>
    </dc:creator>
   </cc:Work>
  </rdf:RDF>
 </metadata>
 <defs>
  <style type="text/css">*{stroke-linejoin: round; stroke-linecap: butt}</style>
 </defs>
 <g id="figure_1">
  <g id="patch_1">
   <path d="M 0 360 
L 720 360 
L 720 0 
L 0 0 
z
" style="fill: #ffffff"/>
  </g>
  <g id="axes_1">
   <g id="patch_2">
    <path d="M 199.19 318.04 
L 709.2 318.04 
L 709.2 26.88 
L 199.19 26.88 
z
" style="fill: #ffffff"/>
   </g>
   <g id="patch_3">
    <path d="M 199.19 304.805455 
L 684.91381 304.805455 
L 684.91381 297.452929 
L 199.19 297.452929 
z
" clip-path="url(#pfc12c41542)" style="fill: #800080"/>
   </g>
   <g id="patch_4">
    <path d="M 199.19 295.614798 
L 282.210386 295.614798 
L 282.210386 288.262273 
L 199.19 288.262273 
z
" clip-path="url(#pfc12c41542)" style="fill: #ffc0cb"/>
   </g>
   <g id="patch_5">
    <path d="M 199.19 286.424141 
L 211.60216 286.424141 
L 211.60216 279.071616 
L 199.19 279.071616 
z
" clip-path="url(#pfc12c41542)" style="fill: #800080"/>
   </g>
   <g id="patch_6">
    <path d="M 199.19 277.233485 
L 208.547063 277.233485 
L 208.547063 269.88096 
L 199.19 269.88096 
z
" clip-path="url(#pfc12c41542)" style="fill: #ffc0cb"/>
   </g>
   <g id="patch_7">
    <path d="M 199.19 268.042828 
L 208.310669 268.042828 
L 208.310669 260.690303 
L 199.19 260.690303 
z
" clip-path="url(#pfc12c41542)" style="fill: #800080"/>
   </g>
   <g id="patch_8">
    <path d="M 199.19 258.852172 
L 208.231398 258.852172 
L 208.231398 251.499646 
L 199.19 251.499646 
z
" clip-path="url(#pfc12c41542)" style="fill: #ffc0cb"/>
   </g>
   <g id="patch_9">
    <path d="M 199.19 249.661515 
L 207.083574 249.661515 
L 207.083574 242.30899 
L 199.19 242.30899 
z
" clip-path="url(#pfc12c41542)" style="fill: #800080"/>
   </g>
   <g id="patch_10">
    <path d="M 199.19 240.470859 
L 206.700942 240.470859 
L 206.700942 233.118333 
L 199.19 233.118333 
z
" clip-path="url(#pfc12c41542)" style="fill: #ffc0cb"/>
   </g>
   <g id="patch_11">
    <path d="M 199.19 231.280202 
L 206.207403 231.280202 
L 206.207403 223.927677 
L 199.19 223.927677 
z
" clip-path="url(#pfc12c41542)" style="fill: #800080"/>
   </g>
   <g id="patch_12">
    <path d="M 199.19 222.089545 
L 203.062152 222.089545 
L 203.062152 214.73702 
L 199.19 214.73702 
z
" clip-path="url(#pfc12c41542)" style="fill: #ffc0cb"/>
   </g>
   <g id="patch_13">
    <path d="M 199.19 212.898889 
L 202.894509 212.898889 
L 202.894509 205.546364 
L 199.19 205.546364 
z
" clip-path="url(#pfc12c41542)" style="fill: #800080"/>
   </g>
   <g id="patch_14">
    <path d="M 199.19 203.708232 
L 201.870619 203.708232 
L 201.870619 196.355707 
L 199.19 196.355707 
z
" clip-path="url(#pfc12c41542)" style="fill: #ffc0cb"/>
   </g>
   <g id="patch_15">
    <path d="M 199.19 194.517576 
L 201.829845 194.517576 
L 201.829845 187.165051 
L 199.19 187.165051 
z
" clip-path="url(#pfc12c41542)" style="fill: #800080"/>
   </g>
   <g id="patch_16">
    <path d="M 199.19 185.326919 
L 201.38244 185.326919 
L 201.38244 177.974394 
L 199.19 177.974394 
z
" clip-path="url(#pfc12c41542)" style="fill: #ffc0cb"/>
   </g>
   <g id="patch_17">
    <path d="M 199.19 176.136263 
L 201.135734 176.136263 
L 201.135734 168.783737 
L 199.19 168.783737 
z
" clip-path="url(#pfc12c41542)" style="fill: #800080"/>
   </g>
   <g id="patch_18">
    <path d="M 199.19 166.945606 
L 200.992143 166.945606 
L 200.992143 159.593081 
L 199.19 159.593081 
z
" clip-path="url(#pfc12c41542)" style="fill: #ffc0cb"/>
   </g>
   <g id="patch_19">
    <path d="M 199.19 157.754949 
L 200.402057 157.754949 
L 200.402057 150.402424 
L 199.19 150.402424 
z
" clip-path="url(#pfc12c41542)" style="fill: #800080"/>
   </g>
   <g id="patch_20">
    <path d="M 199.19 148.564293 
L 199.967311 148.564293 
L 199.967311 141.211768 
L 199.19 141.211768 
z
" clip-path="url(#pfc12c41542)" style="fill: #ffc0cb"/>
   </g>
   <g id="patch_21">
    <path d="M 199.19 139.373636 
L 199.82389 139.373636 
L 199.82389 132.021111 
L 199.19 132.021111 
z
" clip-path="url(#pfc12c41542)" style="fill: #800080"/>
   </g>
   <g id="patch_22">
    <path d="M 199.19 130.18298 
L 199.686954 130.18298 
L 199.686954 122.830455 
L 199.19 122.830455 
z
" clip-path="url(#pfc12c41542)" style="fill: #ffc0cb"/>
   </g>
   <g id="patch_23">
    <path d="M 199.19 120.992323 
L 199.685701 120.992323 
L 199.685701 113.639798 
L 199.19 113.639798 
z
" clip-path="url(#pfc12c41542)" style="fill: #800080"/>
   </g>
   <g id="patch_24">
    <path d="M 199.19 111.801667 
L 199.579167 111.801667 
L 199.579167 104.449141 
L 199.19 104.449141 
z
" clip-path="url(#pfc12c41542)" style="fill: #ffc0cb"/>
   </g>
   <g id="patch_25">
    <path d="M 199.19 102.61101 
L 199.499104 102.61101 
L 199.499104 95.258485 
L 199.19 95.258485 
z
" clip-path="url(#pfc12c41542)" style="fill: #800080"/>
   </g>
   <g id="patch_26">
    <path d="M 199.19 93.420354 
L 199.391021 93.420354 
L 199.391021 86.067828 
L 199.19 86.067828 
z
" clip-path="url(#pfc12c41542)" style="fill: #ffc0cb"/>
   </g>
   <g id="patch_27">
    <path d="M 199.19 84.229697 
L 199.191725 84.229697 
L 199.191725 76.877172 
L 199.19 76.877172 
z
" clip-path="url(#pfc12c41542)" style="fill: #800080"/>
   </g>
   <g id="patch_28">
    <path d="M 199.19 75.03904 
L 199.190493 75.03904 
L 199.190493 67.686515 
L 199.19 67.686515 
z
" clip-path="url(#pfc12c41542)" style="fill: #ffc0cb"/>
   </g>
   <g id="patch_29">
    <path d="M 199.19 65.848384 
L 199.19 65.848384 
L 199.19 58.495859 
L 199.19 58.495859 
z
" clip-path="url(#pfc12c41542)" style="fill: #800080"/>
   </g>
   <g id="patch_30">
    <path d="M 199.19 56.657727 
L 199.19 56.657727 
L 199.19 49.305202 
L 199.19 49.305202 
z
" clip-path="url(#pfc12c41542)" style="fill: #ffc0cb"/>
   </g>
   <g id="patch_31">
    <path d="M 199.19 47.467071 
L 199.19 47.467071 
L 199.19 40.114545 
L 199.19 40.114545 
z
" clip-path="url(#pfc12c41542)" style="fill: #800080"/>
   </g>
   <g id="matplotlib.axis_1">
    <g id="xtick_1">
     <g id="line2d_1">
      <defs>
       <path id="m2db678c1c7" d="M 0 0 
L 0 3.5 
" style="stroke: #000000; stroke-width: 0.8"/>
      </defs>
      <g>
       <use xlink:href="#m2db678c1c7" x="199.19" y="318.04" style="stroke: #000000; stroke-width: 0.8"/>
      </g>
     </g>
     <g id="text_1">
      <!-- 0.0 -->
      <g transform="translate(191.238438 332.638438) scale(0.1 -0.1)">
       <defs>
        <path id="DejaVuSans-30" d="M 2034 4250 
Q 1547 4250 1301 3770 
Q 1056 3291 1056 2328 
Q 1056 1369 1301 889 
Q 1547 409 2034 409 
Q 2525 409 2770 889 
Q 3016 1369 3016 2328 
Q 3016 3291 2770 3770 
Q 2525 4250 2034 4250 
z
M 2034 4750 
Q 2819 4750 3233 4129 
Q 3647 3509 3647 2328 
Q 3647 1150 3233 529 
Q 2819 -91 2034 -91 
Q 1250 -91 836 529 
Q 422 1150 422 2328 
Q 422 3509 836 4129 
Q 1250 4750 2034 4750 
z
" transform="scale(0.015625)"/>
        <path id="DejaVuSans-2e" d="M 684 794 
L 1344 794 
L 1344 0 
L 684 0 
L 684 794 
z
" transform="scale(0.015625)"/>
       </defs>
       <use xlink:href="#DejaVuSans-30"/>
       <use xlink:href="#DejaVuSans-2e" transform="translate(63.623047 0)"/>
       <use xlink:href="#DejaVuSans-30" transform="translate(95.410156 0)"/>
      </g>
     </g>
    </g>
    <g id="xtick_2">
     <g id="line2d_2">
      <g>
       <use xlink:href="#m2db678c1c7" x="264.635218" y="318.04" style="stroke: #000000; stroke-width: 0.8"/>
      </g>
     </g>
     <g id="text_2">
      <!-- 0.1 -->
      <g transform="translate(256.683656 332.638438) scale(0.1 -0.1)">
       <defs>
        <path id="DejaVuSans-31" d="M 794 531 
L 1825 531 
L 1825 4091 
L 703 3866 
L 703 4441 
L 1819 4666 
L 2450 4666 
L 2450 531 
L 3481 531 
L 3481 0 
L 794 0 
L 794 531 
z
" transform="scale(0.015625)"/>
       </defs>
       <use xlink:href="#DejaVuSans-30"/>
       <use xlink:href="#DejaVuSans-2e" transform="translate(63.623047 0)"/>
       <use xlink:href="#DejaVuSans-31" transform="translate(95.410156 0)"/>
      </g>
     </g>
    </g>
    <g id="xtick_3">
     <g id="line2d_3">
      <g>
       <use xlink:href="#m2db678c1c7" x="330.080436" y="318.04" style="stroke: #000000; stroke-width: 0.8"/>
      </g>
     </g>
     <g id="text_3">
      <!-- 0.2 -->
      <g transform="translate(322.128874 332.638438) scale(0.1 -0.1)">
       <defs>
        <path id="DejaVuSans-32" d="M 1228 531 
L 3431 531 
L 3431 0 
L 469 0 
L 469 531 
Q 828 903 1448 1529 
Q 2069 2156 2228 2338 
Q 2531 2678 2651 2914 
Q 2772 3150 2772 3378 
Q 2772 3750 2511 3984 
Q 2250 4219 1831 4219 
Q 1534 4219 1204 4116 
Q 875 4013 500 3803 
L 500 4441 
Q 881 4594 1212 4672 
Q 1544 4750 1819 4750 
Q 2544 4750 2975 4387 
Q 3406 4025 3406 3419 
Q 3406 3131 3298 2873 
Q 3191 2616 2906 2266 
Q 2828 2175 2409 1742 
Q 1991 1309 1228 531 
z
" transform="scale(0.015625)"/>
       </defs>
       <use xlink:href="#DejaVuSans-30"/>
       <use xlink:href="#DejaVuSans-2e" transform="translate(63.623047 0)"/>
       <use xlink:href="#DejaVuSans-32" transform="translate(95.410156 0)"/>
      </g>
     </g>
    </g>
    <g id="xtick_4">
     <g id="line2d_4">
      <g>
       <use xlink:href="#m2db678c1c7" x="395.525654" y="318.04" style="stroke: #000000; stroke-width: 0.8"/>
      </g>
     </g>
     <g id="text_4">
      <!-- 0.3 -->
      <g transform="translate(387.574092 332.638438) scale(0.1 -0.1)">
       <defs>
        <path id="DejaVuSans-33" d="M 2597 2516 
Q 3050 2419 3304 2112 
Q 3559 1806 3559 1356 
Q 3559 666 3084 287 
Q 2609 -91 1734 -91 
Q 1441 -91 1130 -33 
Q 819 25 488 141 
L 488 750 
Q 750 597 1062 519 
Q 1375 441 1716 441 
Q 2309 441 2620 675 
Q 2931 909 2931 1356 
Q 2931 1769 2642 2001 
Q 2353 2234 1838 2234 
L 1294 2234 
L 1294 2753 
L 1863 2753 
Q 2328 2753 2575 2939 
Q 2822 3125 2822 3475 
Q 2822 3834 2567 4026 
Q 2313 4219 1838 4219 
Q 1578 4219 1281 4162 
Q 984 4106 628 3988 
L 628 4550 
Q 988 4650 1302 4700 
Q 1616 4750 1894 4750 
Q 2613 4750 3031 4423 
Q 3450 4097 3450 3541 
Q 3450 3153 3228 2886 
Q 3006 2619 2597 2516 
z
" transform="scale(0.015625)"/>
       </defs>
       <use xlink:href="#DejaVuSans-30"/>
       <use xlink:href="#DejaVuSans-2e" transform="translate(63.623047 0)"/>
       <use xlink:href="#DejaVuSans-33" transform="translate(95.410156 0)"/>
      </g>
     </g>
    </g>
    <g id="xtick_5">
     <g id="line2d_5">
      <g>
       <use xlink:href="#m2db678c1c7" x="460.970872" y="318.04" style="stroke: #000000; stroke-width: 0.8"/>
      </g>
     </g>
     <g id="text_5">
      <!-- 0.4 -->
      <g transform="translate(453.01931 332.638438) scale(0.1 -0.1)">
       <defs>
        <path id="DejaVuSans-34" d="M 2419 4116 
L 825 1625 
L 2419 1625 
L 2419 4116 
z
M 2253 4666 
L 3047 4666 
L 3047 1625 
L 3713 1625 
L 3713 1100 
L 3047 1100 
L 3047 0 
L 2419 0 
L 2419 1100 
L 313 1100 
L 313 1709 
L 2253 4666 
z
" transform="scale(0.015625)"/>
       </defs>
       <use xlink:href="#DejaVuSans-30"/>
       <use xlink:href="#DejaVuSans-2e" transform="translate(63.623047 0)"/>
       <use xlink:href="#DejaVuSans-34" transform="translate(95.410156 0)"/>
      </g>
     </g>
    </g>
    <g id="xtick_6">
     <g id="line2d_6">
      <g>
       <use xlink:href="#m2db678c1c7" x="526.41609" y="318.04" style="stroke: #000000; stroke-width: 0.8"/>
      </g>
     </g>
     <g id="text_6">
      <!-- 0.5 -->
      <g transform="translate(518.464528 332.638438) scale(0.1 -0.1)">
       <defs>
        <path id="DejaVuSans-35" d="M 691 4666 
L 3169 4666 
L 3169 4134 
L 1269 4134 
L 1269 2991 
Q 1406 3038 1543 3061 
Q 1681 3084 1819 3084 
Q 2600 3084 3056 2656 
Q 3513 2228 3513 1497 
Q 3513 744 3044 326 
Q 2575 -91 1722 -91 
Q 1428 -91 1123 -41 
Q 819 9 494 109 
L 494 744 
Q 775 591 1075 516 
Q 1375 441 1709 441 
Q 2250 441 2565 725 
Q 2881 1009 2881 1497 
Q 2881 1984 2565 2268 
Q 2250 2553 1709 2553 
Q 1456 2553 1204 2497 
Q 953 2441 691 2322 
L 691 4666 
z
" transform="scale(0.015625)"/>
       </defs>
       <use xlink:href="#DejaVuSans-30"/>
       <use xlink:href="#DejaVuSans-2e" transform="translate(63.623047 0)"/>
       <use xlink:href="#DejaVuSans-35" transform="translate(95.410156 0)"/>
      </g>
     </g>
    </g>
    <g id="xtick_7">
     <g id="line2d_7">
      <g>
       <use xlink:href="#m2db678c1c7" x="591.861309" y="318.04" style="stroke: #000000; stroke-width: 0.8"/>
      </g>
     </g>
     <g id="text_7">
      <!-- 0.6 -->
      <g transform="translate(583.909746 332.638438) scale(0.1 -0.1)">
       <defs>
        <path id="DejaVuSans-36" d="M 2113 2584 
Q 1688 2584 1439 2293 
Q 1191 2003 1191 1497 
Q 1191 994 1439 701 
Q 1688 409 2113 409 
Q 2538 409 2786 701 
Q 3034 994 3034 1497 
Q 3034 2003 2786 2293 
Q 2538 2584 2113 2584 
z
M 3366 4563 
L 3366 3988 
Q 3128 4100 2886 4159 
Q 2644 4219 2406 4219 
Q 1781 4219 1451 3797 
Q 1122 3375 1075 2522 
Q 1259 2794 1537 2939 
Q 1816 3084 2150 3084 
Q 2853 3084 3261 2657 
Q 3669 2231 3669 1497 
Q 3669 778 3244 343 
Q 2819 -91 2113 -91 
Q 1303 -91 875 529 
Q 447 1150 447 2328 
Q 447 3434 972 4092 
Q 1497 4750 2381 4750 
Q 2619 4750 2861 4703 
Q 3103 4656 3366 4563 
z
" transform="scale(0.015625)"/>
       </defs>
       <use xlink:href="#DejaVuSans-30"/>
       <use xlink:href="#DejaVuSans-2e" transform="translate(63.623047 0)"/>
       <use xlink:href="#DejaVuSans-36" transform="translate(95.410156 0)"/>
      </g>
     </g>
    </g>
    <g id="xtick_8">
     <g id="line2d_8">
      <g>
       <use xlink:href="#m2db678c1c7" x="657.306527" y="318.04" style="stroke: #000000; stroke-width: 0.8"/>
      </g>
     </g>
     <g id="text_8">
      <!-- 0.7 -->
      <g transform="translate(649.354964 332.638438) scale(0.1 -0.1)">
       <defs>
        <path id="DejaVuSans-37" d="M 525 4666 
L 3525 4666 
L 3525 4397 
L 1831 0 
L 1172 0 
L 2766 4134 
L 525 4134 
L 525 4666 
z
" transform="scale(0.015625)"/>
       </defs>
       <use xlink:href="#DejaVuSans-30"/>
       <use xlink:href="#DejaVuSans-2e" transform="translate(63.623047 0)"/>
       <use xlink:href="#DejaVuSans-37" transform="translate(95.410156 0)"/>
      </g>
     </g>
    </g>
    <g id="text_9">
     <!-- Importance -->
     <g transform="translate(425.541875 346.316563) scale(0.1 -0.1)">
      <defs>
       <path id="DejaVuSans-49" d="M 628 4666 
L 1259 4666 
L 1259 0 
L 628 0 
L 628 4666 
z
" transform="scale(0.015625)"/>
       <path id="DejaVuSans-6d" d="M 3328 2828 
Q 3544 3216 3844 3400 
Q 4144 3584 4550 3584 
Q 5097 3584 5394 3201 
Q 5691 2819 5691 2113 
L 5691 0 
L 5113 0 
L 5113 2094 
Q 5113 2597 4934 2840 
Q 4756 3084 4391 3084 
Q 3944 3084 3684 2787 
Q 3425 2491 3425 1978 
L 3425 0 
L 2847 0 
L 2847 2094 
Q 2847 2600 2669 2842 
Q 2491 3084 2119 3084 
Q 1678 3084 1418 2786 
Q 1159 2488 1159 1978 
L 1159 0 
L 581 0 
L 581 3500 
L 1159 3500 
L 1159 2956 
Q 1356 3278 1631 3431 
Q 1906 3584 2284 3584 
Q 2666 3584 2933 3390 
Q 3200 3197 3328 2828 
z
" transform="scale(0.015625)"/>
       <path id="DejaVuSans-70" d="M 1159 525 
L 1159 -1331 
L 581 -1331 
L 581 3500 
L 1159 3500 
L 1159 2969 
Q 1341 3281 1617 3432 
Q 1894 3584 2278 3584 
Q 2916 3584 3314 3078 
Q 3713 2572 3713 1747 
Q 3713 922 3314 415 
Q 2916 -91 2278 -91 
Q 1894 -91 1617 61 
Q 1341 213 1159 525 
z
M 3116 1747 
Q 3116 2381 2855 2742 
Q 2594 3103 2138 3103 
Q 1681 3103 1420 2742 
Q 1159 2381 1159 1747 
Q 1159 1113 1420 752 
Q 1681 391 2138 391 
Q 2594 391 2855 752 
Q 3116 1113 3116 1747 
z
" transform="scale(0.015625)"/>
       <path id="DejaVuSans-6f" d="M 1959 3097 
Q 1497 3097 1228 2736 
Q 959 2375 959 1747 
Q 959 1119 1226 758 
Q 1494 397 1959 397 
Q 2419 397 2687 759 
Q 2956 1122 2956 1747 
Q 2956 2369 2687 2733 
Q 2419 3097 1959 3097 
z
M 1959 3584 
Q 2709 3584 3137 3096 
Q 3566 2609 3566 1747 
Q 3566 888 3137 398 
Q 2709 -91 1959 -91 
Q 1206 -91 779 398 
Q 353 888 353 1747 
Q 353 2609 779 3096 
Q 1206 3584 1959 3584 
z
" transform="scale(0.015625)"/>
       <path id="DejaVuSans-72" d="M 2631 2963 
Q 2534 3019 2420 3045 
Q 2306 3072 2169 3072 
Q 1681 3072 1420 2755 
Q 1159 2438 1159 1844 
L 1159 0 
L 581 0 
L 581 3500 
L 1159 3500 
L 1159 2956 
Q 1341 3275 1631 3429 
Q 1922 3584 2338 3584 
Q 2397 3584 2469 3576 
Q 2541 3569 2628 3553 
L 2631 2963 
z
" transform="scale(0.015625)"/>
       <path id="DejaVuSans-74" d="M 1172 4494 
L 1172 3500 
L 2356 3500 
L 2356 3053 
L 1172 3053 
L 1172 1153 
Q 1172 725 1289 603 
Q 1406 481 1766 481 
L 2356 481 
L 2356 0 
L 1766 0 
Q 1100 0 847 248 
Q 594 497 594 1153 
L 594 3053 
L 172 3053 
L 172 3500 
L 594 3500 
L 594 4494 
L 1172 4494 
z
" transform="scale(0.015625)"/>
       <path id="DejaVuSans-61" d="M 2194 1759 
Q 1497 1759 1228 1600 
Q 959 1441 959 1056 
Q 959 750 1161 570 
Q 1363 391 1709 391 
Q 2188 391 2477 730 
Q 2766 1069 2766 1631 
L 2766 1759 
L 2194 1759 
z
M 3341 1997 
L 3341 0 
L 2766 0 
L 2766 531 
Q 2569 213 2275 61 
Q 1981 -91 1556 -91 
Q 1019 -91 701 211 
Q 384 513 384 1019 
Q 384 1609 779 1909 
Q 1175 2209 1959 2209 
L 2766 2209 
L 2766 2266 
Q 2766 2663 2505 2880 
Q 2244 3097 1772 3097 
Q 1472 3097 1187 3025 
Q 903 2953 641 2809 
L 641 3341 
Q 956 3463 1253 3523 
Q 1550 3584 1831 3584 
Q 2591 3584 2966 3190 
Q 3341 2797 3341 1997 
z
" transform="scale(0.015625)"/>
       <path id="DejaVuSans-6e" d="M 3513 2113 
L 3513 0 
L 2938 0 
L 2938 2094 
Q 2938 2591 2744 2837 
Q 2550 3084 2163 3084 
Q 1697 3084 1428 2787 
Q 1159 2491 1159 1978 
L 1159 0 
L 581 0 
L 581 3500 
L 1159 3500 
L 1159 2956 
Q 1366 3272 1645 3428 
Q 1925 3584 2291 3584 
Q 2894 3584 3203 3211 
Q 3513 2838 3513 2113 
z
" transform="scale(0.015625)"/>
       <path id="DejaVuSans-63" d="M 3122 3366 
L 3122 2828 
Q 2878 2963 2633 3030 
Q 2388 3097 2138 3097 
Q 1578 3097 1268 2742 
Q 959 2388 959 1747 
Q 959 1106 1268 751 
Q 1578 397 2138 397 
Q 2388 397 2633 464 
Q 2878 531 3122 666 
L 3122 134 
Q 2881 22 2623 -34 
Q 2366 -91 2075 -91 
Q 1284 -91 818 406 
Q 353 903 353 1747 
Q 353 2603 823 3093 
Q 1294 3584 2113 3584 
Q 2378 3584 2631 3529 
Q 2884 3475 3122 3366 
z
" transform="scale(0.015625)"/>
       <path id="DejaVuSans-65" d="M 3597 1894 
L 3597 1613 
L 953 1613 
Q 991 1019 1311 708 
Q 1631 397 2203 397 
Q 2534 397 2845 478 
Q 3156 559 3463 722 
L 3463 178 
Q 3153 47 2828 -22 
Q 2503 -91 2169 -91 
Q 1331 -91 842 396 
Q 353 884 353 1716 
Q 353 2575 817 3079 
Q 1281 3584 2069 3584 
Q 2775 3584 3186 3129 
Q 3597 2675 3597 1894 
z
M 3022 2063 
Q 3016 2534 2758 2815 
Q 2500 3097 2075 3097 
Q 1594 3097 1305 2825 
Q 1016 2553 972 2059 
L 3022 2063 
z
" transform="scale(0.015625)"/>
      </defs>
      <use xlink:href="#DejaVuSans-49"/>
      <use xlink:href="#DejaVuSans-6d" transform="translate(29.492188 0)"/>
      <use xlink:href="#DejaVuSans-70" transform="translate(126.904297 0)"/>
      <use xlink:href="#DejaVuSans-6f" transform="translate(190.380859 0)"/>
      <use xlink:href="#DejaVuSans-72" transform="translate(251.5625 0)"/>
      <use xlink:href="#DejaVuSans-74" transform="translate(292.675781 0)"/>
      <use xlink:href="#DejaVuSans-61" transform="translate(331.884766 0)"/>
      <use xlink:href="#DejaVuSans-6e" transform="translate(393.164062 0)"/>
      <use xlink:href="#DejaVuSans-63" transform="translate(456.542969 0)"/>
      <use xlink:href="#DejaVuSans-65" transform="translate(511.523438 0)"/>
     </g>
    </g>
   </g>
   <g id="matplotlib.axis_2">
    <g id="ytick_1">
     <g id="line2d_9">
      <defs>
       <path id="md1bfc700c9" d="M 0 0 
L -3.5 0 
" style="stroke: #000000; stroke-width: 0.8"/>
      </defs>
      <g>
       <use xlink:href="#md1bfc700c9" x="199.19" y="301.129192" style="stroke: #000000; stroke-width: 0.8"/>
      </g>
     </g>
     <g id="text_10">
      <!-- hour -->
      <g transform="translate(169.285313 304.928411) scale(0.1 -0.1)">
       <defs>
        <path id="DejaVuSans-68" d="M 3513 2113 
L 3513 0 
L 2938 0 
L 2938 2094 
Q 2938 2591 2744 2837 
Q 2550 3084 2163 3084 
Q 1697 3084 1428 2787 
Q 1159 2491 1159 1978 
L 1159 0 
L 581 0 
L 581 4863 
L 1159 4863 
L 1159 2956 
Q 1366 3272 1645 3428 
Q 1925 3584 2291 3584 
Q 2894 3584 3203 3211 
Q 3513 2838 3513 2113 
z
" transform="scale(0.015625)"/>
        <path id="DejaVuSans-75" d="M 544 1381 
L 544 3500 
L 1119 3500 
L 1119 1403 
Q 1119 906 1312 657 
Q 1506 409 1894 409 
Q 2359 409 2629 706 
Q 2900 1003 2900 1516 
L 2900 3500 
L 3475 3500 
L 3475 0 
L 2900 0 
L 2900 538 
Q 2691 219 2414 64 
Q 2138 -91 1772 -91 
Q 1169 -91 856 284 
Q 544 659 544 1381 
z
M 1991 3584 
L 1991 3584 
z
" transform="scale(0.015625)"/>
       </defs>
       <use xlink:href="#DejaVuSans-68"/>
       <use xlink:href="#DejaVuSans-6f" transform="translate(63.378906 0)"/>
       <use xlink:href="#DejaVuSans-75" transform="translate(124.560547 0)"/>
       <use xlink:href="#DejaVuSans-72" transform="translate(187.939453 0)"/>
      </g>
     </g>
    </g>
    <g id="ytick_2">
     <g id="line2d_10">
      <g>
       <use xlink:href="#md1bfc700c9" x="199.19" y="291.938535" style="stroke: #000000; stroke-width: 0.8"/>
      </g>
     </g>
     <g id="text_11">
      <!-- dayofweek -->
      <g transform="translate(138.055625 295.737754) scale(0.1 -0.1)">
       <defs>
        <path id="DejaVuSans-64" d="M 2906 2969 
L 2906 4863 
L 3481 4863 
L 3481 0 
L 2906 0 
L 2906 525 
Q 2725 213 2448 61 
Q 2172 -91 1784 -91 
Q 1150 -91 751 415 
Q 353 922 353 1747 
Q 353 2572 751 3078 
Q 1150 3584 1784 3584 
Q 2172 3584 2448 3432 
Q 2725 3281 2906 2969 
z
M 947 1747 
Q 947 1113 1208 752 
Q 1469 391 1925 391 
Q 2381 391 2643 752 
Q 2906 1113 2906 1747 
Q 2906 2381 2643 2742 
Q 2381 3103 1925 3103 
Q 1469 3103 1208 2742 
Q 947 2381 947 1747 
z
" transform="scale(0.015625)"/>
        <path id="DejaVuSans-79" d="M 2059 -325 
Q 1816 -950 1584 -1140 
Q 1353 -1331 966 -1331 
L 506 -1331 
L 506 -850 
L 844 -850 
Q 1081 -850 1212 -737 
Q 1344 -625 1503 -206 
L 1606 56 
L 191 3500 
L 800 3500 
L 1894 763 
L 2988 3500 
L 3597 3500 
L 2059 -325 
z
" transform="scale(0.015625)"/>
        <path id="DejaVuSans-66" d="M 2375 4863 
L 2375 4384 
L 1825 4384 
Q 1516 4384 1395 4259 
Q 1275 4134 1275 3809 
L 1275 3500 
L 2222 3500 
L 2222 3053 
L 1275 3053 
L 1275 0 
L 697 0 
L 697 3053 
L 147 3053 
L 147 3500 
L 697 3500 
L 697 3744 
Q 697 4328 969 4595 
Q 1241 4863 1831 4863 
L 2375 4863 
z
" transform="scale(0.015625)"/>
        <path id="DejaVuSans-77" d="M 269 3500 
L 844 3500 
L 1563 769 
L 2278 3500 
L 2956 3500 
L 3675 769 
L 4391 3500 
L 4966 3500 
L 4050 0 
L 3372 0 
L 2619 2869 
L 1863 0 
L 1184 0 
L 269 3500 
z
" transform="scale(0.015625)"/>
        <path id="DejaVuSans-6b" d="M 581 4863 
L 1159 4863 
L 1159 1991 
L 2875 3500 
L 3609 3500 
L 1753 1863 
L 3688 0 
L 2938 0 
L 1159 1709 
L 1159 0 
L 581 0 
L 581 4863 
z
" transform="scale(0.015625)"/>
       </defs>
       <use xlink:href="#DejaVuSans-64"/>
       <use xlink:href="#DejaVuSans-61" transform="translate(63.476562 0)"/>
       <use xlink:href="#DejaVuSans-79" transform="translate(124.755859 0)"/>
       <use xlink:href="#DejaVuSans-6f" transform="translate(183.935547 0)"/>
       <use xlink:href="#DejaVuSans-66" transform="translate(245.117188 0)"/>
       <use xlink:href="#DejaVuSans-77" transform="translate(278.572266 0)"/>
       <use xlink:href="#DejaVuSans-65" transform="translate(360.359375 0)"/>
       <use xlink:href="#DejaVuSans-65" transform="translate(421.882812 0)"/>
       <use xlink:href="#DejaVuSans-6b" transform="translate(483.40625 0)"/>
      </g>
     </g>
    </g>
    <g id="ytick_3">
     <g id="line2d_11">
      <g>
       <use xlink:href="#md1bfc700c9" x="199.19" y="282.747879" style="stroke: #000000; stroke-width: 0.8"/>
      </g>
     </g>
     <g id="text_12">
      <!-- weather_main_Clouds -->
      <g transform="translate(82.449375 286.547098) scale(0.1 -0.1)">
       <defs>
        <path id="DejaVuSans-5f" d="M 3263 -1063 
L 3263 -1509 
L -63 -1509 
L -63 -1063 
L 3263 -1063 
z
" transform="scale(0.015625)"/>
        <path id="DejaVuSans-69" d="M 603 3500 
L 1178 3500 
L 1178 0 
L 603 0 
L 603 3500 
z
M 603 4863 
L 1178 4863 
L 1178 4134 
L 603 4134 
L 603 4863 
z
" transform="scale(0.015625)"/>
        <path id="DejaVuSans-43" d="M 4122 4306 
L 4122 3641 
Q 3803 3938 3442 4084 
Q 3081 4231 2675 4231 
Q 1875 4231 1450 3742 
Q 1025 3253 1025 2328 
Q 1025 1406 1450 917 
Q 1875 428 2675 428 
Q 3081 428 3442 575 
Q 3803 722 4122 1019 
L 4122 359 
Q 3791 134 3420 21 
Q 3050 -91 2638 -91 
Q 1578 -91 968 557 
Q 359 1206 359 2328 
Q 359 3453 968 4101 
Q 1578 4750 2638 4750 
Q 3056 4750 3426 4639 
Q 3797 4528 4122 4306 
z
" transform="scale(0.015625)"/>
        <path id="DejaVuSans-6c" d="M 603 4863 
L 1178 4863 
L 1178 0 
L 603 0 
L 603 4863 
z
" transform="scale(0.015625)"/>
        <path id="DejaVuSans-73" d="M 2834 3397 
L 2834 2853 
Q 2591 2978 2328 3040 
Q 2066 3103 1784 3103 
Q 1356 3103 1142 2972 
Q 928 2841 928 2578 
Q 928 2378 1081 2264 
Q 1234 2150 1697 2047 
L 1894 2003 
Q 2506 1872 2764 1633 
Q 3022 1394 3022 966 
Q 3022 478 2636 193 
Q 2250 -91 1575 -91 
Q 1294 -91 989 -36 
Q 684 19 347 128 
L 347 722 
Q 666 556 975 473 
Q 1284 391 1588 391 
Q 1994 391 2212 530 
Q 2431 669 2431 922 
Q 2431 1156 2273 1281 
Q 2116 1406 1581 1522 
L 1381 1569 
Q 847 1681 609 1914 
Q 372 2147 372 2553 
Q 372 3047 722 3315 
Q 1072 3584 1716 3584 
Q 2034 3584 2315 3537 
Q 2597 3491 2834 3397 
z
" transform="scale(0.015625)"/>
       </defs>
       <use xlink:href="#DejaVuSans-77"/>
       <use xlink:href="#DejaVuSans-65" transform="translate(81.787109 0)"/>
       <use xlink:href="#DejaVuSans-61" transform="translate(143.310547 0)"/>
       <use xlink:href="#DejaVuSans-74" transform="translate(204.589844 0)"/>
       <use xlink:href="#DejaVuSans-68" transform="translate(243.798828 0)"/>
       <use xlink:href="#DejaVuSans-65" transform="translate(307.177734 0)"/>
       <use xlink:href="#DejaVuSans-72" transform="translate(368.701172 0)"/>
       <use xlink:href="#DejaVuSans-5f" transform="translate(409.814453 0)"/>
       <use xlink:href="#DejaVuSans-6d" transform="translate(459.814453 0)"/>
       <use xlink:href="#DejaVuSans-61" transform="translate(557.226562 0)"/>
       <use xlink:href="#DejaVuSans-69" transform="translate(618.505859 0)"/>
       <use xlink:href="#DejaVuSans-6e" transform="translate(646.289062 0)"/>
       <use xlink:href="#DejaVuSans-5f" transform="translate(709.667969 0)"/>
       <use xlink:href="#DejaVuSans-43" transform="translate(759.667969 0)"/>
       <use xlink:href="#DejaVuSans-6c" transform="translate(829.492188 0)"/>
       <use xlink:href="#DejaVuSans-6f" transform="translate(857.275391 0)"/>
       <use xlink:href="#DejaVuSans-75" transform="translate(918.457031 0)"/>
       <use xlink:href="#DejaVuSans-64" transform="translate(981.835938 0)"/>
       <use xlink:href="#DejaVuSans-73" transform="translate(1045.3125 0)"/>
      </g>
     </g>
    </g>
    <g id="ytick_4">
     <g id="line2d_12">
      <g>
       <use xlink:href="#md1bfc700c9" x="199.19" y="273.557222" style="stroke: #000000; stroke-width: 0.8"/>
      </g>
     </g>
     <g id="text_13">
      <!-- temp -->
      <g transform="translate(166.0275 277.356441) scale(0.1 -0.1)">
       <use xlink:href="#DejaVuSans-74"/>
       <use xlink:href="#DejaVuSans-65" transform="translate(39.208984 0)"/>
       <use xlink:href="#DejaVuSans-6d" transform="translate(100.732422 0)"/>
       <use xlink:href="#DejaVuSans-70" transform="translate(198.144531 0)"/>
      </g>
     </g>
    </g>
    <g id="ytick_5">
     <g id="line2d_13">
      <g>
       <use xlink:href="#md1bfc700c9" x="199.19" y="264.366566" style="stroke: #000000; stroke-width: 0.8"/>
      </g>
     </g>
     <g id="text_14">
      <!-- weather_main_Fog -->
      <g transform="translate(98.368125 268.165784) scale(0.1 -0.1)">
       <defs>
        <path id="DejaVuSans-46" d="M 628 4666 
L 3309 4666 
L 3309 4134 
L 1259 4134 
L 1259 2759 
L 3109 2759 
L 3109 2228 
L 1259 2228 
L 1259 0 
L 628 0 
L 628 4666 
z
" transform="scale(0.015625)"/>
        <path id="DejaVuSans-67" d="M 2906 1791 
Q 2906 2416 2648 2759 
Q 2391 3103 1925 3103 
Q 1463 3103 1205 2759 
Q 947 2416 947 1791 
Q 947 1169 1205 825 
Q 1463 481 1925 481 
Q 2391 481 2648 825 
Q 2906 1169 2906 1791 
z
M 3481 434 
Q 3481 -459 3084 -895 
Q 2688 -1331 1869 -1331 
Q 1566 -1331 1297 -1286 
Q 1028 -1241 775 -1147 
L 775 -588 
Q 1028 -725 1275 -790 
Q 1522 -856 1778 -856 
Q 2344 -856 2625 -561 
Q 2906 -266 2906 331 
L 2906 616 
Q 2728 306 2450 153 
Q 2172 0 1784 0 
Q 1141 0 747 490 
Q 353 981 353 1791 
Q 353 2603 747 3093 
Q 1141 3584 1784 3584 
Q 2172 3584 2450 3431 
Q 2728 3278 2906 2969 
L 2906 3500 
L 3481 3500 
L 3481 434 
z
" transform="scale(0.015625)"/>
       </defs>
       <use xlink:href="#DejaVuSans-77"/>
       <use xlink:href="#DejaVuSans-65" transform="translate(81.787109 0)"/>
       <use xlink:href="#DejaVuSans-61" transform="translate(143.310547 0)"/>
       <use xlink:href="#DejaVuSans-74" transform="translate(204.589844 0)"/>
       <use xlink:href="#DejaVuSans-68" transform="translate(243.798828 0)"/>
       <use xlink:href="#DejaVuSans-65" transform="translate(307.177734 0)"/>
       <use xlink:href="#DejaVuSans-72" transform="translate(368.701172 0)"/>
       <use xlink:href="#DejaVuSans-5f" transform="translate(409.814453 0)"/>
       <use xlink:href="#DejaVuSans-6d" transform="translate(459.814453 0)"/>
       <use xlink:href="#DejaVuSans-61" transform="translate(557.226562 0)"/>
       <use xlink:href="#DejaVuSans-69" transform="translate(618.505859 0)"/>
       <use xlink:href="#DejaVuSans-6e" transform="translate(646.289062 0)"/>
       <use xlink:href="#DejaVuSans-5f" transform="translate(709.667969 0)"/>
       <use xlink:href="#DejaVuSans-46" transform="translate(759.667969 0)"/>
       <use xlink:href="#DejaVuSans-6f" transform="translate(813.5625 0)"/>
       <use xlink:href="#DejaVuSans-67" transform="translate(874.744141 0)"/>
      </g>
     </g>
    </g>
    <g id="ytick_6">
     <g id="line2d_14">
      <g>
       <use xlink:href="#md1bfc700c9" x="199.19" y="255.175909" style="stroke: #000000; stroke-width: 0.8"/>
      </g>
     </g>
     <g id="text_15">
      <!-- clouds_all -->
      <g transform="translate(143.215 258.975128) scale(0.1 -0.1)">
       <use xlink:href="#DejaVuSans-63"/>
       <use xlink:href="#DejaVuSans-6c" transform="translate(54.980469 0)"/>
       <use xlink:href="#DejaVuSans-6f" transform="translate(82.763672 0)"/>
       <use xlink:href="#DejaVuSans-75" transform="translate(143.945312 0)"/>
       <use xlink:href="#DejaVuSans-64" transform="translate(207.324219 0)"/>
       <use xlink:href="#DejaVuSans-73" transform="translate(270.800781 0)"/>
       <use xlink:href="#DejaVuSans-5f" transform="translate(322.900391 0)"/>
       <use xlink:href="#DejaVuSans-61" transform="translate(372.900391 0)"/>
       <use xlink:href="#DejaVuSans-6c" transform="translate(434.179688 0)"/>
       <use xlink:href="#DejaVuSans-6c" transform="translate(461.962891 0)"/>
      </g>
     </g>
    </g>
    <g id="ytick_7">
     <g id="line2d_15">
      <g>
       <use xlink:href="#md1bfc700c9" x="199.19" y="245.985253" style="stroke: #000000; stroke-width: 0.8"/>
      </g>
     </g>
     <g id="text_16">
      <!-- weather_main_Clear -->
      <g transform="translate(90.07125 249.784471) scale(0.1 -0.1)">
       <use xlink:href="#DejaVuSans-77"/>
       <use xlink:href="#DejaVuSans-65" transform="translate(81.787109 0)"/>
       <use xlink:href="#DejaVuSans-61" transform="translate(143.310547 0)"/>
       <use xlink:href="#DejaVuSans-74" transform="translate(204.589844 0)"/>
       <use xlink:href="#DejaVuSans-68" transform="translate(243.798828 0)"/>
       <use xlink:href="#DejaVuSans-65" transform="translate(307.177734 0)"/>
       <use xlink:href="#DejaVuSans-72" transform="translate(368.701172 0)"/>
       <use xlink:href="#DejaVuSans-5f" transform="translate(409.814453 0)"/>
       <use xlink:href="#DejaVuSans-6d" transform="translate(459.814453 0)"/>
       <use xlink:href="#DejaVuSans-61" transform="translate(557.226562 0)"/>
       <use xlink:href="#DejaVuSans-69" transform="translate(618.505859 0)"/>
       <use xlink:href="#DejaVuSans-6e" transform="translate(646.289062 0)"/>
       <use xlink:href="#DejaVuSans-5f" transform="translate(709.667969 0)"/>
       <use xlink:href="#DejaVuSans-43" transform="translate(759.667969 0)"/>
       <use xlink:href="#DejaVuSans-6c" transform="translate(829.492188 0)"/>
       <use xlink:href="#DejaVuSans-65" transform="translate(857.275391 0)"/>
       <use xlink:href="#DejaVuSans-61" transform="translate(918.798828 0)"/>
       <use xlink:href="#DejaVuSans-72" transform="translate(980.078125 0)"/>
      </g>
     </g>
    </g>
    <g id="ytick_8">
     <g id="line2d_16">
      <g>
       <use xlink:href="#md1bfc700c9" x="199.19" y="236.794596" style="stroke: #000000; stroke-width: 0.8"/>
      </g>
     </g>
     <g id="text_17">
      <!-- rain_1h -->
      <g transform="translate(155.135313 240.593815) scale(0.1 -0.1)">
       <use xlink:href="#DejaVuSans-72"/>
       <use xlink:href="#DejaVuSans-61" transform="translate(41.113281 0)"/>
       <use xlink:href="#DejaVuSans-69" transform="translate(102.392578 0)"/>
       <use xlink:href="#DejaVuSans-6e" transform="translate(130.175781 0)"/>
       <use xlink:href="#DejaVuSans-5f" transform="translate(193.554688 0)"/>
       <use xlink:href="#DejaVuSans-31" transform="translate(243.554688 0)"/>
       <use xlink:href="#DejaVuSans-68" transform="translate(307.177734 0)"/>
      </g>
     </g>
    </g>
    <g id="ytick_9">
     <g id="line2d_17">
      <g>
       <use xlink:href="#md1bfc700c9" x="199.19" y="227.603939" style="stroke: #000000; stroke-width: 0.8"/>
      </g>
     </g>
     <g id="text_18">
      <!-- month -->
      <g transform="translate(159.735313 231.403158) scale(0.1 -0.1)">
       <use xlink:href="#DejaVuSans-6d"/>
       <use xlink:href="#DejaVuSans-6f" transform="translate(97.412109 0)"/>
       <use xlink:href="#DejaVuSans-6e" transform="translate(158.59375 0)"/>
       <use xlink:href="#DejaVuSans-74" transform="translate(221.972656 0)"/>
       <use xlink:href="#DejaVuSans-68" transform="translate(261.181641 0)"/>
      </g>
     </g>
    </g>
    <g id="ytick_10">
     <g id="line2d_18">
      <g>
       <use xlink:href="#md1bfc700c9" x="199.19" y="218.413283" style="stroke: #000000; stroke-width: 0.8"/>
      </g>
     </g>
     <g id="text_19">
      <!-- weather_main_Snow -->
      <g transform="translate(89.241563 222.212502) scale(0.1 -0.1)">
       <defs>
        <path id="DejaVuSans-53" d="M 3425 4513 
L 3425 3897 
Q 3066 4069 2747 4153 
Q 2428 4238 2131 4238 
Q 1616 4238 1336 4038 
Q 1056 3838 1056 3469 
Q 1056 3159 1242 3001 
Q 1428 2844 1947 2747 
L 2328 2669 
Q 3034 2534 3370 2195 
Q 3706 1856 3706 1288 
Q 3706 609 3251 259 
Q 2797 -91 1919 -91 
Q 1588 -91 1214 -16 
Q 841 59 441 206 
L 441 856 
Q 825 641 1194 531 
Q 1563 422 1919 422 
Q 2459 422 2753 634 
Q 3047 847 3047 1241 
Q 3047 1584 2836 1778 
Q 2625 1972 2144 2069 
L 1759 2144 
Q 1053 2284 737 2584 
Q 422 2884 422 3419 
Q 422 4038 858 4394 
Q 1294 4750 2059 4750 
Q 2388 4750 2728 4690 
Q 3069 4631 3425 4513 
z
" transform="scale(0.015625)"/>
       </defs>
       <use xlink:href="#DejaVuSans-77"/>
       <use xlink:href="#DejaVuSans-65" transform="translate(81.787109 0)"/>
       <use xlink:href="#DejaVuSans-61" transform="translate(143.310547 0)"/>
       <use xlink:href="#DejaVuSans-74" transform="translate(204.589844 0)"/>
       <use xlink:href="#DejaVuSans-68" transform="translate(243.798828 0)"/>
       <use xlink:href="#DejaVuSans-65" transform="translate(307.177734 0)"/>
       <use xlink:href="#DejaVuSans-72" transform="translate(368.701172 0)"/>
       <use xlink:href="#DejaVuSans-5f" transform="translate(409.814453 0)"/>
       <use xlink:href="#DejaVuSans-6d" transform="translate(459.814453 0)"/>
       <use xlink:href="#DejaVuSans-61" transform="translate(557.226562 0)"/>
       <use xlink:href="#DejaVuSans-69" transform="translate(618.505859 0)"/>
       <use xlink:href="#DejaVuSans-6e" transform="translate(646.289062 0)"/>
       <use xlink:href="#DejaVuSans-5f" transform="translate(709.667969 0)"/>
       <use xlink:href="#DejaVuSans-53" transform="translate(759.667969 0)"/>
       <use xlink:href="#DejaVuSans-6e" transform="translate(823.144531 0)"/>
       <use xlink:href="#DejaVuSans-6f" transform="translate(886.523438 0)"/>
       <use xlink:href="#DejaVuSans-77" transform="translate(947.705078 0)"/>
      </g>
     </g>
    </g>
    <g id="ytick_11">
     <g id="line2d_19">
      <g>
       <use xlink:href="#md1bfc700c9" x="199.19" y="209.222626" style="stroke: #000000; stroke-width: 0.8"/>
      </g>
     </g>
     <g id="text_20">
      <!-- weather_main_Mist -->
      <g transform="translate(95.688438 213.021845) scale(0.1 -0.1)">
       <defs>
        <path id="DejaVuSans-4d" d="M 628 4666 
L 1569 4666 
L 2759 1491 
L 3956 4666 
L 4897 4666 
L 4897 0 
L 4281 0 
L 4281 4097 
L 3078 897 
L 2444 897 
L 1241 4097 
L 1241 0 
L 628 0 
L 628 4666 
z
" transform="scale(0.015625)"/>
       </defs>
       <use xlink:href="#DejaVuSans-77"/>
       <use xlink:href="#DejaVuSans-65" transform="translate(81.787109 0)"/>
       <use xlink:href="#DejaVuSans-61" transform="translate(143.310547 0)"/>
       <use xlink:href="#DejaVuSans-74" transform="translate(204.589844 0)"/>
       <use xlink:href="#DejaVuSans-68" transform="translate(243.798828 0)"/>
       <use xlink:href="#DejaVuSans-65" transform="translate(307.177734 0)"/>
       <use xlink:href="#DejaVuSans-72" transform="translate(368.701172 0)"/>
       <use xlink:href="#DejaVuSans-5f" transform="translate(409.814453 0)"/>
       <use xlink:href="#DejaVuSans-6d" transform="translate(459.814453 0)"/>
       <use xlink:href="#DejaVuSans-61" transform="translate(557.226562 0)"/>
       <use xlink:href="#DejaVuSans-69" transform="translate(618.505859 0)"/>
       <use xlink:href="#DejaVuSans-6e" transform="translate(646.289062 0)"/>
       <use xlink:href="#DejaVuSans-5f" transform="translate(709.667969 0)"/>
       <use xlink:href="#DejaVuSans-4d" transform="translate(759.667969 0)"/>
       <use xlink:href="#DejaVuSans-69" transform="translate(845.947266 0)"/>
       <use xlink:href="#DejaVuSans-73" transform="translate(873.730469 0)"/>
       <use xlink:href="#DejaVuSans-74" transform="translate(925.830078 0)"/>
      </g>
     </g>
    </g>
    <g id="ytick_12">
     <g id="line2d_20">
      <g>
       <use xlink:href="#md1bfc700c9" x="199.19" y="200.03197" style="stroke: #000000; stroke-width: 0.8"/>
      </g>
     </g>
     <g id="text_21">
      <!-- weather_main_Haze -->
      <g transform="translate(91.174375 203.831188) scale(0.1 -0.1)">
       <defs>
        <path id="DejaVuSans-48" d="M 628 4666 
L 1259 4666 
L 1259 2753 
L 3553 2753 
L 3553 4666 
L 4184 4666 
L 4184 0 
L 3553 0 
L 3553 2222 
L 1259 2222 
L 1259 0 
L 628 0 
L 628 4666 
z
" transform="scale(0.015625)"/>
        <path id="DejaVuSans-7a" d="M 353 3500 
L 3084 3500 
L 3084 2975 
L 922 459 
L 3084 459 
L 3084 0 
L 275 0 
L 275 525 
L 2438 3041 
L 353 3041 
L 353 3500 
z
" transform="scale(0.015625)"/>
       </defs>
       <use xlink:href="#DejaVuSans-77"/>
       <use xlink:href="#DejaVuSans-65" transform="translate(81.787109 0)"/>
       <use xlink:href="#DejaVuSans-61" transform="translate(143.310547 0)"/>
       <use xlink:href="#DejaVuSans-74" transform="translate(204.589844 0)"/>
       <use xlink:href="#DejaVuSans-68" transform="translate(243.798828 0)"/>
       <use xlink:href="#DejaVuSans-65" transform="translate(307.177734 0)"/>
       <use xlink:href="#DejaVuSans-72" transform="translate(368.701172 0)"/>
       <use xlink:href="#DejaVuSans-5f" transform="translate(409.814453 0)"/>
       <use xlink:href="#DejaVuSans-6d" transform="translate(459.814453 0)"/>
       <use xlink:href="#DejaVuSans-61" transform="translate(557.226562 0)"/>
       <use xlink:href="#DejaVuSans-69" transform="translate(618.505859 0)"/>
       <use xlink:href="#DejaVuSans-6e" transform="translate(646.289062 0)"/>
       <use xlink:href="#DejaVuSans-5f" transform="translate(709.667969 0)"/>
       <use xlink:href="#DejaVuSans-48" transform="translate(759.667969 0)"/>
       <use xlink:href="#DejaVuSans-61" transform="translate(834.863281 0)"/>
       <use xlink:href="#DejaVuSans-7a" transform="translate(896.142578 0)"/>
       <use xlink:href="#DejaVuSans-65" transform="translate(948.632812 0)"/>
      </g>
     </g>
    </g>
    <g id="ytick_13">
     <g id="line2d_21">
      <g>
       <use xlink:href="#md1bfc700c9" x="199.19" y="190.841313" style="stroke: #000000; stroke-width: 0.8"/>
      </g>
     </g>
     <g id="text_22">
      <!-- weather_main_Thunderstorm -->
      <g transform="translate(45.566563 194.640532) scale(0.1 -0.1)">
       <defs>
        <path id="DejaVuSans-54" d="M -19 4666 
L 3928 4666 
L 3928 4134 
L 2272 4134 
L 2272 0 
L 1638 0 
L 1638 4134 
L -19 4134 
L -19 4666 
z
" transform="scale(0.015625)"/>
       </defs>
       <use xlink:href="#DejaVuSans-77"/>
       <use xlink:href="#DejaVuSans-65" transform="translate(81.787109 0)"/>
       <use xlink:href="#DejaVuSans-61" transform="translate(143.310547 0)"/>
       <use xlink:href="#DejaVuSans-74" transform="translate(204.589844 0)"/>
       <use xlink:href="#DejaVuSans-68" transform="translate(243.798828 0)"/>
       <use xlink:href="#DejaVuSans-65" transform="translate(307.177734 0)"/>
       <use xlink:href="#DejaVuSans-72" transform="translate(368.701172 0)"/>
       <use xlink:href="#DejaVuSans-5f" transform="translate(409.814453 0)"/>
       <use xlink:href="#DejaVuSans-6d" transform="translate(459.814453 0)"/>
       <use xlink:href="#DejaVuSans-61" transform="translate(557.226562 0)"/>
       <use xlink:href="#DejaVuSans-69" transform="translate(618.505859 0)"/>
       <use xlink:href="#DejaVuSans-6e" transform="translate(646.289062 0)"/>
       <use xlink:href="#DejaVuSans-5f" transform="translate(709.667969 0)"/>
       <use xlink:href="#DejaVuSans-54" transform="translate(759.667969 0)"/>
       <use xlink:href="#DejaVuSans-68" transform="translate(820.751953 0)"/>
       <use xlink:href="#DejaVuSans-75" transform="translate(884.130859 0)"/>
       <use xlink:href="#DejaVuSans-6e" transform="translate(947.509766 0)"/>
       <use xlink:href="#DejaVuSans-64" transform="translate(1010.888672 0)"/>
       <use xlink:href="#DejaVuSans-65" transform="translate(1074.365234 0)"/>
       <use xlink:href="#DejaVuSans-72" transform="translate(1135.888672 0)"/>
       <use xlink:href="#DejaVuSans-73" transform="translate(1177.001953 0)"/>
       <use xlink:href="#DejaVuSans-74" transform="translate(1229.101562 0)"/>
       <use xlink:href="#DejaVuSans-6f" transform="translate(1268.310547 0)"/>
       <use xlink:href="#DejaVuSans-72" transform="translate(1329.492188 0)"/>
       <use xlink:href="#DejaVuSans-6d" transform="translate(1368.855469 0)"/>
      </g>
     </g>
    </g>
    <g id="ytick_14">
     <g id="line2d_22">
      <g>
       <use xlink:href="#md1bfc700c9" x="199.19" y="181.650657" style="stroke: #000000; stroke-width: 0.8"/>
      </g>
     </g>
     <g id="text_23">
      <!-- weather_main_Rain -->
      <g transform="translate(94.257188 185.449875) scale(0.1 -0.1)">
       <defs>
        <path id="DejaVuSans-52" d="M 2841 2188 
Q 3044 2119 3236 1894 
Q 3428 1669 3622 1275 
L 4263 0 
L 3584 0 
L 2988 1197 
Q 2756 1666 2539 1819 
Q 2322 1972 1947 1972 
L 1259 1972 
L 1259 0 
L 628 0 
L 628 4666 
L 2053 4666 
Q 2853 4666 3247 4331 
Q 3641 3997 3641 3322 
Q 3641 2881 3436 2590 
Q 3231 2300 2841 2188 
z
M 1259 4147 
L 1259 2491 
L 2053 2491 
Q 2509 2491 2742 2702 
Q 2975 2913 2975 3322 
Q 2975 3731 2742 3939 
Q 2509 4147 2053 4147 
L 1259 4147 
z
" transform="scale(0.015625)"/>
       </defs>
       <use xlink:href="#DejaVuSans-77"/>
       <use xlink:href="#DejaVuSans-65" transform="translate(81.787109 0)"/>
       <use xlink:href="#DejaVuSans-61" transform="translate(143.310547 0)"/>
       <use xlink:href="#DejaVuSans-74" transform="translate(204.589844 0)"/>
       <use xlink:href="#DejaVuSans-68" transform="translate(243.798828 0)"/>
       <use xlink:href="#DejaVuSans-65" transform="translate(307.177734 0)"/>
       <use xlink:href="#DejaVuSans-72" transform="translate(368.701172 0)"/>
       <use xlink:href="#DejaVuSans-5f" transform="translate(409.814453 0)"/>
       <use xlink:href="#DejaVuSans-6d" transform="translate(459.814453 0)"/>
       <use xlink:href="#DejaVuSans-61" transform="translate(557.226562 0)"/>
       <use xlink:href="#DejaVuSans-69" transform="translate(618.505859 0)"/>
       <use xlink:href="#DejaVuSans-6e" transform="translate(646.289062 0)"/>
       <use xlink:href="#DejaVuSans-5f" transform="translate(709.667969 0)"/>
       <use xlink:href="#DejaVuSans-52" transform="translate(759.667969 0)"/>
       <use xlink:href="#DejaVuSans-61" transform="translate(826.900391 0)"/>
       <use xlink:href="#DejaVuSans-69" transform="translate(888.179688 0)"/>
       <use xlink:href="#DejaVuSans-6e" transform="translate(915.962891 0)"/>
      </g>
     </g>
    </g>
    <g id="ytick_15">
     <g id="line2d_23">
      <g>
       <use xlink:href="#md1bfc700c9" x="199.19" y="172.46" style="stroke: #000000; stroke-width: 0.8"/>
      </g>
     </g>
     <g id="text_24">
      <!-- weather_main_Drizzle -->
      <g transform="translate(82.207188 176.259219) scale(0.1 -0.1)">
       <defs>
        <path id="DejaVuSans-44" d="M 1259 4147 
L 1259 519 
L 2022 519 
Q 2988 519 3436 956 
Q 3884 1394 3884 2338 
Q 3884 3275 3436 3711 
Q 2988 4147 2022 4147 
L 1259 4147 
z
M 628 4666 
L 1925 4666 
Q 3281 4666 3915 4102 
Q 4550 3538 4550 2338 
Q 4550 1131 3912 565 
Q 3275 0 1925 0 
L 628 0 
L 628 4666 
z
" transform="scale(0.015625)"/>
       </defs>
       <use xlink:href="#DejaVuSans-77"/>
       <use xlink:href="#DejaVuSans-65" transform="translate(81.787109 0)"/>
       <use xlink:href="#DejaVuSans-61" transform="translate(143.310547 0)"/>
       <use xlink:href="#DejaVuSans-74" transform="translate(204.589844 0)"/>
       <use xlink:href="#DejaVuSans-68" transform="translate(243.798828 0)"/>
       <use xlink:href="#DejaVuSans-65" transform="translate(307.177734 0)"/>
       <use xlink:href="#DejaVuSans-72" transform="translate(368.701172 0)"/>
       <use xlink:href="#DejaVuSans-5f" transform="translate(409.814453 0)"/>
       <use xlink:href="#DejaVuSans-6d" transform="translate(459.814453 0)"/>
       <use xlink:href="#DejaVuSans-61" transform="translate(557.226562 0)"/>
       <use xlink:href="#DejaVuSans-69" transform="translate(618.505859 0)"/>
       <use xlink:href="#DejaVuSans-6e" transform="translate(646.289062 0)"/>
       <use xlink:href="#DejaVuSans-5f" transform="translate(709.667969 0)"/>
       <use xlink:href="#DejaVuSans-44" transform="translate(759.667969 0)"/>
       <use xlink:href="#DejaVuSans-72" transform="translate(836.669922 0)"/>
       <use xlink:href="#DejaVuSans-69" transform="translate(877.783203 0)"/>
       <use xlink:href="#DejaVuSans-7a" transform="translate(905.566406 0)"/>
       <use xlink:href="#DejaVuSans-7a" transform="translate(958.056641 0)"/>
       <use xlink:href="#DejaVuSans-6c" transform="translate(1010.546875 0)"/>
       <use xlink:href="#DejaVuSans-65" transform="translate(1038.330078 0)"/>
      </g>
     </g>
    </g>
    <g id="ytick_16">
     <g id="line2d_24">
      <g>
       <use xlink:href="#md1bfc700c9" x="199.19" y="163.269343" style="stroke: #000000; stroke-width: 0.8"/>
      </g>
     </g>
     <g id="text_25">
      <!-- snow_1h -->
      <g transform="translate(148.64625 167.068562) scale(0.1 -0.1)">
       <use xlink:href="#DejaVuSans-73"/>
       <use xlink:href="#DejaVuSans-6e" transform="translate(52.099609 0)"/>
       <use xlink:href="#DejaVuSans-6f" transform="translate(115.478516 0)"/>
       <use xlink:href="#DejaVuSans-77" transform="translate(176.660156 0)"/>
       <use xlink:href="#DejaVuSans-5f" transform="translate(258.447266 0)"/>
       <use xlink:href="#DejaVuSans-31" transform="translate(308.447266 0)"/>
       <use xlink:href="#DejaVuSans-68" transform="translate(372.070312 0)"/>
      </g>
     </g>
    </g>
    <g id="ytick_17">
     <g id="line2d_25">
      <g>
       <use xlink:href="#md1bfc700c9" x="199.19" y="154.078687" style="stroke: #000000; stroke-width: 0.8"/>
      </g>
     </g>
     <g id="text_26">
      <!-- holiday_New Years Day -->
      <g transform="translate(76.482188 157.877906) scale(0.1 -0.1)">
       <defs>
        <path id="DejaVuSans-4e" d="M 628 4666 
L 1478 4666 
L 3547 763 
L 3547 4666 
L 4159 4666 
L 4159 0 
L 3309 0 
L 1241 3903 
L 1241 0 
L 628 0 
L 628 4666 
z
" transform="scale(0.015625)"/>
        <path id="DejaVuSans-20" transform="scale(0.015625)"/>
        <path id="DejaVuSans-59" d="M -13 4666 
L 666 4666 
L 1959 2747 
L 3244 4666 
L 3922 4666 
L 2272 2222 
L 2272 0 
L 1638 0 
L 1638 2222 
L -13 4666 
z
" transform="scale(0.015625)"/>
       </defs>
       <use xlink:href="#DejaVuSans-68"/>
       <use xlink:href="#DejaVuSans-6f" transform="translate(63.378906 0)"/>
       <use xlink:href="#DejaVuSans-6c" transform="translate(124.560547 0)"/>
       <use xlink:href="#DejaVuSans-69" transform="translate(152.34375 0)"/>
       <use xlink:href="#DejaVuSans-64" transform="translate(180.126953 0)"/>
       <use xlink:href="#DejaVuSans-61" transform="translate(243.603516 0)"/>
       <use xlink:href="#DejaVuSans-79" transform="translate(304.882812 0)"/>
       <use xlink:href="#DejaVuSans-5f" transform="translate(364.0625 0)"/>
       <use xlink:href="#DejaVuSans-4e" transform="translate(414.0625 0)"/>
       <use xlink:href="#DejaVuSans-65" transform="translate(488.867188 0)"/>
       <use xlink:href="#DejaVuSans-77" transform="translate(550.390625 0)"/>
       <use xlink:href="#DejaVuSans-20" transform="translate(632.177734 0)"/>
       <use xlink:href="#DejaVuSans-59" transform="translate(663.964844 0)"/>
       <use xlink:href="#DejaVuSans-65" transform="translate(711.798828 0)"/>
       <use xlink:href="#DejaVuSans-61" transform="translate(773.322266 0)"/>
       <use xlink:href="#DejaVuSans-72" transform="translate(834.601562 0)"/>
       <use xlink:href="#DejaVuSans-73" transform="translate(875.714844 0)"/>
       <use xlink:href="#DejaVuSans-20" transform="translate(927.814453 0)"/>
       <use xlink:href="#DejaVuSans-44" transform="translate(959.601562 0)"/>
       <use xlink:href="#DejaVuSans-61" transform="translate(1036.603516 0)"/>
       <use xlink:href="#DejaVuSans-79" transform="translate(1097.882812 0)"/>
      </g>
     </g>
    </g>
    <g id="ytick_18">
     <g id="line2d_26">
      <g>
       <use xlink:href="#md1bfc700c9" x="199.19" y="144.88803" style="stroke: #000000; stroke-width: 0.8"/>
      </g>
     </g>
     <g id="text_27">
      <!-- holiday_Labor Day -->
      <g transform="translate(99.579063 148.687249) scale(0.1 -0.1)">
       <defs>
        <path id="DejaVuSans-4c" d="M 628 4666 
L 1259 4666 
L 1259 531 
L 3531 531 
L 3531 0 
L 628 0 
L 628 4666 
z
" transform="scale(0.015625)"/>
        <path id="DejaVuSans-62" d="M 3116 1747 
Q 3116 2381 2855 2742 
Q 2594 3103 2138 3103 
Q 1681 3103 1420 2742 
Q 1159 2381 1159 1747 
Q 1159 1113 1420 752 
Q 1681 391 2138 391 
Q 2594 391 2855 752 
Q 3116 1113 3116 1747 
z
M 1159 2969 
Q 1341 3281 1617 3432 
Q 1894 3584 2278 3584 
Q 2916 3584 3314 3078 
Q 3713 2572 3713 1747 
Q 3713 922 3314 415 
Q 2916 -91 2278 -91 
Q 1894 -91 1617 61 
Q 1341 213 1159 525 
L 1159 0 
L 581 0 
L 581 4863 
L 1159 4863 
L 1159 2969 
z
" transform="scale(0.015625)"/>
       </defs>
       <use xlink:href="#DejaVuSans-68"/>
       <use xlink:href="#DejaVuSans-6f" transform="translate(63.378906 0)"/>
       <use xlink:href="#DejaVuSans-6c" transform="translate(124.560547 0)"/>
       <use xlink:href="#DejaVuSans-69" transform="translate(152.34375 0)"/>
       <use xlink:href="#DejaVuSans-64" transform="translate(180.126953 0)"/>
       <use xlink:href="#DejaVuSans-61" transform="translate(243.603516 0)"/>
       <use xlink:href="#DejaVuSans-79" transform="translate(304.882812 0)"/>
       <use xlink:href="#DejaVuSans-5f" transform="translate(364.0625 0)"/>
       <use xlink:href="#DejaVuSans-4c" transform="translate(414.0625 0)"/>
       <use xlink:href="#DejaVuSans-61" transform="translate(469.775391 0)"/>
       <use xlink:href="#DejaVuSans-62" transform="translate(531.054688 0)"/>
       <use xlink:href="#DejaVuSans-6f" transform="translate(594.53125 0)"/>
       <use xlink:href="#DejaVuSans-72" transform="translate(655.712891 0)"/>
       <use xlink:href="#DejaVuSans-20" transform="translate(696.826172 0)"/>
       <use xlink:href="#DejaVuSans-44" transform="translate(728.613281 0)"/>
       <use xlink:href="#DejaVuSans-61" transform="translate(805.615234 0)"/>
       <use xlink:href="#DejaVuSans-79" transform="translate(866.894531 0)"/>
      </g>
     </g>
    </g>
    <g id="ytick_19">
     <g id="line2d_27">
      <g>
       <use xlink:href="#md1bfc700c9" x="199.19" y="135.697374" style="stroke: #000000; stroke-width: 0.8"/>
      </g>
     </g>
     <g id="text_28">
      <!-- holiday_Independence Day -->
      <g transform="translate(56.738438 139.496592) scale(0.1 -0.1)">
       <use xlink:href="#DejaVuSans-68"/>
       <use xlink:href="#DejaVuSans-6f" transform="translate(63.378906 0)"/>
       <use xlink:href="#DejaVuSans-6c" transform="translate(124.560547 0)"/>
       <use xlink:href="#DejaVuSans-69" transform="translate(152.34375 0)"/>
       <use xlink:href="#DejaVuSans-64" transform="translate(180.126953 0)"/>
       <use xlink:href="#DejaVuSans-61" transform="translate(243.603516 0)"/>
       <use xlink:href="#DejaVuSans-79" transform="translate(304.882812 0)"/>
       <use xlink:href="#DejaVuSans-5f" transform="translate(364.0625 0)"/>
       <use xlink:href="#DejaVuSans-49" transform="translate(414.0625 0)"/>
       <use xlink:href="#DejaVuSans-6e" transform="translate(443.554688 0)"/>
       <use xlink:href="#DejaVuSans-64" transform="translate(506.933594 0)"/>
       <use xlink:href="#DejaVuSans-65" transform="translate(570.410156 0)"/>
       <use xlink:href="#DejaVuSans-70" transform="translate(631.933594 0)"/>
       <use xlink:href="#DejaVuSans-65" transform="translate(695.410156 0)"/>
       <use xlink:href="#DejaVuSans-6e" transform="translate(756.933594 0)"/>
       <use xlink:href="#DejaVuSans-64" transform="translate(820.3125 0)"/>
       <use xlink:href="#DejaVuSans-65" transform="translate(883.789062 0)"/>
       <use xlink:href="#DejaVuSans-6e" transform="translate(945.3125 0)"/>
       <use xlink:href="#DejaVuSans-63" transform="translate(1008.691406 0)"/>
       <use xlink:href="#DejaVuSans-65" transform="translate(1063.671875 0)"/>
       <use xlink:href="#DejaVuSans-20" transform="translate(1125.195312 0)"/>
       <use xlink:href="#DejaVuSans-44" transform="translate(1156.982422 0)"/>
       <use xlink:href="#DejaVuSans-61" transform="translate(1233.984375 0)"/>
       <use xlink:href="#DejaVuSans-79" transform="translate(1295.263672 0)"/>
      </g>
     </g>
    </g>
    <g id="ytick_20">
     <g id="line2d_28">
      <g>
       <use xlink:href="#md1bfc700c9" x="199.19" y="126.506717" style="stroke: #000000; stroke-width: 0.8"/>
      </g>
     </g>
     <g id="text_29">
      <!-- holiday_Thanksgiving Day -->
      <g transform="translate(61.436875 130.305936) scale(0.1 -0.1)">
       <defs>
        <path id="DejaVuSans-76" d="M 191 3500 
L 800 3500 
L 1894 563 
L 2988 3500 
L 3597 3500 
L 2284 0 
L 1503 0 
L 191 3500 
z
" transform="scale(0.015625)"/>
       </defs>
       <use xlink:href="#DejaVuSans-68"/>
       <use xlink:href="#DejaVuSans-6f" transform="translate(63.378906 0)"/>
       <use xlink:href="#DejaVuSans-6c" transform="translate(124.560547 0)"/>
       <use xlink:href="#DejaVuSans-69" transform="translate(152.34375 0)"/>
       <use xlink:href="#DejaVuSans-64" transform="translate(180.126953 0)"/>
       <use xlink:href="#DejaVuSans-61" transform="translate(243.603516 0)"/>
       <use xlink:href="#DejaVuSans-79" transform="translate(304.882812 0)"/>
       <use xlink:href="#DejaVuSans-5f" transform="translate(364.0625 0)"/>
       <use xlink:href="#DejaVuSans-54" transform="translate(414.0625 0)"/>
       <use xlink:href="#DejaVuSans-68" transform="translate(475.146484 0)"/>
       <use xlink:href="#DejaVuSans-61" transform="translate(538.525391 0)"/>
       <use xlink:href="#DejaVuSans-6e" transform="translate(599.804688 0)"/>
       <use xlink:href="#DejaVuSans-6b" transform="translate(663.183594 0)"/>
       <use xlink:href="#DejaVuSans-73" transform="translate(721.09375 0)"/>
       <use xlink:href="#DejaVuSans-67" transform="translate(773.193359 0)"/>
       <use xlink:href="#DejaVuSans-69" transform="translate(836.669922 0)"/>
       <use xlink:href="#DejaVuSans-76" transform="translate(864.453125 0)"/>
       <use xlink:href="#DejaVuSans-69" transform="translate(923.632812 0)"/>
       <use xlink:href="#DejaVuSans-6e" transform="translate(951.416016 0)"/>
       <use xlink:href="#DejaVuSans-67" transform="translate(1014.794922 0)"/>
       <use xlink:href="#DejaVuSans-20" transform="translate(1078.271484 0)"/>
       <use xlink:href="#DejaVuSans-44" transform="translate(1110.058594 0)"/>
       <use xlink:href="#DejaVuSans-61" transform="translate(1187.060547 0)"/>
       <use xlink:href="#DejaVuSans-79" transform="translate(1248.339844 0)"/>
      </g>
     </g>
    </g>
    <g id="ytick_21">
     <g id="line2d_29">
      <g>
       <use xlink:href="#md1bfc700c9" x="199.19" y="117.316061" style="stroke: #000000; stroke-width: 0.8"/>
      </g>
     </g>
     <g id="text_30">
      <!-- holiday_Memorial Day -->
      <g transform="translate(81.42125 121.115279) scale(0.1 -0.1)">
       <use xlink:href="#DejaVuSans-68"/>
       <use xlink:href="#DejaVuSans-6f" transform="translate(63.378906 0)"/>
       <use xlink:href="#DejaVuSans-6c" transform="translate(124.560547 0)"/>
       <use xlink:href="#DejaVuSans-69" transform="translate(152.34375 0)"/>
       <use xlink:href="#DejaVuSans-64" transform="translate(180.126953 0)"/>
       <use xlink:href="#DejaVuSans-61" transform="translate(243.603516 0)"/>
       <use xlink:href="#DejaVuSans-79" transform="translate(304.882812 0)"/>
       <use xlink:href="#DejaVuSans-5f" transform="translate(364.0625 0)"/>
       <use xlink:href="#DejaVuSans-4d" transform="translate(414.0625 0)"/>
       <use xlink:href="#DejaVuSans-65" transform="translate(500.341797 0)"/>
       <use xlink:href="#DejaVuSans-6d" transform="translate(561.865234 0)"/>
       <use xlink:href="#DejaVuSans-6f" transform="translate(659.277344 0)"/>
       <use xlink:href="#DejaVuSans-72" transform="translate(720.458984 0)"/>
       <use xlink:href="#DejaVuSans-69" transform="translate(761.572266 0)"/>
       <use xlink:href="#DejaVuSans-61" transform="translate(789.355469 0)"/>
       <use xlink:href="#DejaVuSans-6c" transform="translate(850.634766 0)"/>
       <use xlink:href="#DejaVuSans-20" transform="translate(878.417969 0)"/>
       <use xlink:href="#DejaVuSans-44" transform="translate(910.205078 0)"/>
       <use xlink:href="#DejaVuSans-61" transform="translate(987.207031 0)"/>
       <use xlink:href="#DejaVuSans-79" transform="translate(1048.486328 0)"/>
      </g>
     </g>
    </g>
    <g id="ytick_22">
     <g id="line2d_30">
      <g>
       <use xlink:href="#md1bfc700c9" x="199.19" y="108.125404" style="stroke: #000000; stroke-width: 0.8"/>
      </g>
     </g>
     <g id="text_31">
      <!-- weather_main_Squall -->
      <g transform="translate(85.505625 111.924623) scale(0.1 -0.1)">
       <defs>
        <path id="DejaVuSans-71" d="M 947 1747 
Q 947 1113 1208 752 
Q 1469 391 1925 391 
Q 2381 391 2643 752 
Q 2906 1113 2906 1747 
Q 2906 2381 2643 2742 
Q 2381 3103 1925 3103 
Q 1469 3103 1208 2742 
Q 947 2381 947 1747 
z
M 2906 525 
Q 2725 213 2448 61 
Q 2172 -91 1784 -91 
Q 1150 -91 751 415 
Q 353 922 353 1747 
Q 353 2572 751 3078 
Q 1150 3584 1784 3584 
Q 2172 3584 2448 3432 
Q 2725 3281 2906 2969 
L 2906 3500 
L 3481 3500 
L 3481 -1331 
L 2906 -1331 
L 2906 525 
z
" transform="scale(0.015625)"/>
       </defs>
       <use xlink:href="#DejaVuSans-77"/>
       <use xlink:href="#DejaVuSans-65" transform="translate(81.787109 0)"/>
       <use xlink:href="#DejaVuSans-61" transform="translate(143.310547 0)"/>
       <use xlink:href="#DejaVuSans-74" transform="translate(204.589844 0)"/>
       <use xlink:href="#DejaVuSans-68" transform="translate(243.798828 0)"/>
       <use xlink:href="#DejaVuSans-65" transform="translate(307.177734 0)"/>
       <use xlink:href="#DejaVuSans-72" transform="translate(368.701172 0)"/>
       <use xlink:href="#DejaVuSans-5f" transform="translate(409.814453 0)"/>
       <use xlink:href="#DejaVuSans-6d" transform="translate(459.814453 0)"/>
       <use xlink:href="#DejaVuSans-61" transform="translate(557.226562 0)"/>
       <use xlink:href="#DejaVuSans-69" transform="translate(618.505859 0)"/>
       <use xlink:href="#DejaVuSans-6e" transform="translate(646.289062 0)"/>
       <use xlink:href="#DejaVuSans-5f" transform="translate(709.667969 0)"/>
       <use xlink:href="#DejaVuSans-53" transform="translate(759.667969 0)"/>
       <use xlink:href="#DejaVuSans-71" transform="translate(823.144531 0)"/>
       <use xlink:href="#DejaVuSans-75" transform="translate(886.621094 0)"/>
       <use xlink:href="#DejaVuSans-61" transform="translate(950 0)"/>
       <use xlink:href="#DejaVuSans-6c" transform="translate(1011.279297 0)"/>
       <use xlink:href="#DejaVuSans-6c" transform="translate(1039.0625 0)"/>
      </g>
     </g>
    </g>
    <g id="ytick_23">
     <g id="line2d_31">
      <g>
       <use xlink:href="#md1bfc700c9" x="199.19" y="98.934747" style="stroke: #000000; stroke-width: 0.8"/>
      </g>
     </g>
     <g id="text_32">
      <!-- holiday_Christmas Day -->
      <g transform="translate(77.44 102.733966) scale(0.1 -0.1)">
       <use xlink:href="#DejaVuSans-68"/>
       <use xlink:href="#DejaVuSans-6f" transform="translate(63.378906 0)"/>
       <use xlink:href="#DejaVuSans-6c" transform="translate(124.560547 0)"/>
       <use xlink:href="#DejaVuSans-69" transform="translate(152.34375 0)"/>
       <use xlink:href="#DejaVuSans-64" transform="translate(180.126953 0)"/>
       <use xlink:href="#DejaVuSans-61" transform="translate(243.603516 0)"/>
       <use xlink:href="#DejaVuSans-79" transform="translate(304.882812 0)"/>
       <use xlink:href="#DejaVuSans-5f" transform="translate(364.0625 0)"/>
       <use xlink:href="#DejaVuSans-43" transform="translate(414.0625 0)"/>
       <use xlink:href="#DejaVuSans-68" transform="translate(483.886719 0)"/>
       <use xlink:href="#DejaVuSans-72" transform="translate(547.265625 0)"/>
       <use xlink:href="#DejaVuSans-69" transform="translate(588.378906 0)"/>
       <use xlink:href="#DejaVuSans-73" transform="translate(616.162109 0)"/>
       <use xlink:href="#DejaVuSans-74" transform="translate(668.261719 0)"/>
       <use xlink:href="#DejaVuSans-6d" transform="translate(707.470703 0)"/>
       <use xlink:href="#DejaVuSans-61" transform="translate(804.882812 0)"/>
       <use xlink:href="#DejaVuSans-73" transform="translate(866.162109 0)"/>
       <use xlink:href="#DejaVuSans-20" transform="translate(918.261719 0)"/>
       <use xlink:href="#DejaVuSans-44" transform="translate(950.048828 0)"/>
       <use xlink:href="#DejaVuSans-61" transform="translate(1027.050781 0)"/>
       <use xlink:href="#DejaVuSans-79" transform="translate(1088.330078 0)"/>
      </g>
     </g>
    </g>
    <g id="ytick_24">
     <g id="line2d_32">
      <g>
       <use xlink:href="#md1bfc700c9" x="199.19" y="89.744091" style="stroke: #000000; stroke-width: 0.8"/>
      </g>
     </g>
     <g id="text_33">
      <!-- holiday_Washingtons Birthday -->
      <g transform="translate(41.225938 93.54331) scale(0.1 -0.1)">
       <defs>
        <path id="DejaVuSans-57" d="M 213 4666 
L 850 4666 
L 1831 722 
L 2809 4666 
L 3519 4666 
L 4500 722 
L 5478 4666 
L 6119 4666 
L 4947 0 
L 4153 0 
L 3169 4050 
L 2175 0 
L 1381 0 
L 213 4666 
z
" transform="scale(0.015625)"/>
        <path id="DejaVuSans-42" d="M 1259 2228 
L 1259 519 
L 2272 519 
Q 2781 519 3026 730 
Q 3272 941 3272 1375 
Q 3272 1813 3026 2020 
Q 2781 2228 2272 2228 
L 1259 2228 
z
M 1259 4147 
L 1259 2741 
L 2194 2741 
Q 2656 2741 2882 2914 
Q 3109 3088 3109 3444 
Q 3109 3797 2882 3972 
Q 2656 4147 2194 4147 
L 1259 4147 
z
M 628 4666 
L 2241 4666 
Q 2963 4666 3353 4366 
Q 3744 4066 3744 3513 
Q 3744 3084 3544 2831 
Q 3344 2578 2956 2516 
Q 3422 2416 3680 2098 
Q 3938 1781 3938 1306 
Q 3938 681 3513 340 
Q 3088 0 2303 0 
L 628 0 
L 628 4666 
z
" transform="scale(0.015625)"/>
       </defs>
       <use xlink:href="#DejaVuSans-68"/>
       <use xlink:href="#DejaVuSans-6f" transform="translate(63.378906 0)"/>
       <use xlink:href="#DejaVuSans-6c" transform="translate(124.560547 0)"/>
       <use xlink:href="#DejaVuSans-69" transform="translate(152.34375 0)"/>
       <use xlink:href="#DejaVuSans-64" transform="translate(180.126953 0)"/>
       <use xlink:href="#DejaVuSans-61" transform="translate(243.603516 0)"/>
       <use xlink:href="#DejaVuSans-79" transform="translate(304.882812 0)"/>
       <use xlink:href="#DejaVuSans-5f" transform="translate(364.0625 0)"/>
       <use xlink:href="#DejaVuSans-57" transform="translate(414.0625 0)"/>
       <use xlink:href="#DejaVuSans-61" transform="translate(506.564453 0)"/>
       <use xlink:href="#DejaVuSans-73" transform="translate(567.84375 0)"/>
       <use xlink:href="#DejaVuSans-68" transform="translate(619.943359 0)"/>
       <use xlink:href="#DejaVuSans-69" transform="translate(683.322266 0)"/>
       <use xlink:href="#DejaVuSans-6e" transform="translate(711.105469 0)"/>
       <use xlink:href="#DejaVuSans-67" transform="translate(774.484375 0)"/>
       <use xlink:href="#DejaVuSans-74" transform="translate(837.960938 0)"/>
       <use xlink:href="#DejaVuSans-6f" transform="translate(877.169922 0)"/>
       <use xlink:href="#DejaVuSans-6e" transform="translate(938.351562 0)"/>
       <use xlink:href="#DejaVuSans-73" transform="translate(1001.730469 0)"/>
       <use xlink:href="#DejaVuSans-20" transform="translate(1053.830078 0)"/>
       <use xlink:href="#DejaVuSans-42" transform="translate(1085.617188 0)"/>
       <use xlink:href="#DejaVuSans-69" transform="translate(1154.220703 0)"/>
       <use xlink:href="#DejaVuSans-72" transform="translate(1182.003906 0)"/>
       <use xlink:href="#DejaVuSans-74" transform="translate(1223.117188 0)"/>
       <use xlink:href="#DejaVuSans-68" transform="translate(1262.326172 0)"/>
       <use xlink:href="#DejaVuSans-64" transform="translate(1325.705078 0)"/>
       <use xlink:href="#DejaVuSans-61" transform="translate(1389.181641 0)"/>
       <use xlink:href="#DejaVuSans-79" transform="translate(1450.460938 0)"/>
      </g>
     </g>
    </g>
    <g id="ytick_25">
     <g id="line2d_33">
      <g>
       <use xlink:href="#md1bfc700c9" x="199.19" y="80.553434" style="stroke: #000000; stroke-width: 0.8"/>
      </g>
     </g>
     <g id="text_34">
      <!-- holiday_Martin Luther King Jr Day -->
      <g transform="translate(25.080625 84.352653) scale(0.1 -0.1)">
       <defs>
        <path id="DejaVuSans-4b" d="M 628 4666 
L 1259 4666 
L 1259 2694 
L 3353 4666 
L 4166 4666 
L 1850 2491 
L 4331 0 
L 3500 0 
L 1259 2247 
L 1259 0 
L 628 0 
L 628 4666 
z
" transform="scale(0.015625)"/>
        <path id="DejaVuSans-4a" d="M 628 4666 
L 1259 4666 
L 1259 325 
Q 1259 -519 939 -900 
Q 619 -1281 -91 -1281 
L -331 -1281 
L -331 -750 
L -134 -750 
Q 284 -750 456 -515 
Q 628 -281 628 325 
L 628 4666 
z
" transform="scale(0.015625)"/>
       </defs>
       <use xlink:href="#DejaVuSans-68"/>
       <use xlink:href="#DejaVuSans-6f" transform="translate(63.378906 0)"/>
       <use xlink:href="#DejaVuSans-6c" transform="translate(124.560547 0)"/>
       <use xlink:href="#DejaVuSans-69" transform="translate(152.34375 0)"/>
       <use xlink:href="#DejaVuSans-64" transform="translate(180.126953 0)"/>
       <use xlink:href="#DejaVuSans-61" transform="translate(243.603516 0)"/>
       <use xlink:href="#DejaVuSans-79" transform="translate(304.882812 0)"/>
       <use xlink:href="#DejaVuSans-5f" transform="translate(364.0625 0)"/>
       <use xlink:href="#DejaVuSans-4d" transform="translate(414.0625 0)"/>
       <use xlink:href="#DejaVuSans-61" transform="translate(500.341797 0)"/>
       <use xlink:href="#DejaVuSans-72" transform="translate(561.621094 0)"/>
       <use xlink:href="#DejaVuSans-74" transform="translate(602.734375 0)"/>
       <use xlink:href="#DejaVuSans-69" transform="translate(641.943359 0)"/>
       <use xlink:href="#DejaVuSans-6e" transform="translate(669.726562 0)"/>
       <use xlink:href="#DejaVuSans-20" transform="translate(733.105469 0)"/>
       <use xlink:href="#DejaVuSans-4c" transform="translate(764.892578 0)"/>
       <use xlink:href="#DejaVuSans-75" transform="translate(818.855469 0)"/>
       <use xlink:href="#DejaVuSans-74" transform="translate(882.234375 0)"/>
       <use xlink:href="#DejaVuSans-68" transform="translate(921.443359 0)"/>
       <use xlink:href="#DejaVuSans-65" transform="translate(984.822266 0)"/>
       <use xlink:href="#DejaVuSans-72" transform="translate(1046.345703 0)"/>
       <use xlink:href="#DejaVuSans-20" transform="translate(1087.458984 0)"/>
       <use xlink:href="#DejaVuSans-4b" transform="translate(1119.246094 0)"/>
       <use xlink:href="#DejaVuSans-69" transform="translate(1184.822266 0)"/>
       <use xlink:href="#DejaVuSans-6e" transform="translate(1212.605469 0)"/>
       <use xlink:href="#DejaVuSans-67" transform="translate(1275.984375 0)"/>
       <use xlink:href="#DejaVuSans-20" transform="translate(1339.460938 0)"/>
       <use xlink:href="#DejaVuSans-4a" transform="translate(1371.248047 0)"/>
       <use xlink:href="#DejaVuSans-72" transform="translate(1400.740234 0)"/>
       <use xlink:href="#DejaVuSans-20" transform="translate(1441.853516 0)"/>
       <use xlink:href="#DejaVuSans-44" transform="translate(1473.640625 0)"/>
       <use xlink:href="#DejaVuSans-61" transform="translate(1550.642578 0)"/>
       <use xlink:href="#DejaVuSans-79" transform="translate(1611.921875 0)"/>
      </g>
     </g>
    </g>
    <g id="ytick_26">
     <g id="line2d_34">
      <g>
       <use xlink:href="#md1bfc700c9" x="199.19" y="71.362778" style="stroke: #000000; stroke-width: 0.8"/>
      </g>
     </g>
     <g id="text_35">
      <!-- holiday_Columbus Day -->
      <g transform="translate(78.004063 75.161997) scale(0.1 -0.1)">
       <use xlink:href="#DejaVuSans-68"/>
       <use xlink:href="#DejaVuSans-6f" transform="translate(63.378906 0)"/>
       <use xlink:href="#DejaVuSans-6c" transform="translate(124.560547 0)"/>
       <use xlink:href="#DejaVuSans-69" transform="translate(152.34375 0)"/>
       <use xlink:href="#DejaVuSans-64" transform="translate(180.126953 0)"/>
       <use xlink:href="#DejaVuSans-61" transform="translate(243.603516 0)"/>
       <use xlink:href="#DejaVuSans-79" transform="translate(304.882812 0)"/>
       <use xlink:href="#DejaVuSans-5f" transform="translate(364.0625 0)"/>
       <use xlink:href="#DejaVuSans-43" transform="translate(414.0625 0)"/>
       <use xlink:href="#DejaVuSans-6f" transform="translate(483.886719 0)"/>
       <use xlink:href="#DejaVuSans-6c" transform="translate(545.068359 0)"/>
       <use xlink:href="#DejaVuSans-75" transform="translate(572.851562 0)"/>
       <use xlink:href="#DejaVuSans-6d" transform="translate(636.230469 0)"/>
       <use xlink:href="#DejaVuSans-62" transform="translate(733.642578 0)"/>
       <use xlink:href="#DejaVuSans-75" transform="translate(797.119141 0)"/>
       <use xlink:href="#DejaVuSans-73" transform="translate(860.498047 0)"/>
       <use xlink:href="#DejaVuSans-20" transform="translate(912.597656 0)"/>
       <use xlink:href="#DejaVuSans-44" transform="translate(944.384766 0)"/>
       <use xlink:href="#DejaVuSans-61" transform="translate(1021.386719 0)"/>
       <use xlink:href="#DejaVuSans-79" transform="translate(1082.666016 0)"/>
      </g>
     </g>
    </g>
    <g id="ytick_27">
     <g id="line2d_35">
      <g>
       <use xlink:href="#md1bfc700c9" x="199.19" y="62.172121" style="stroke: #000000; stroke-width: 0.8"/>
      </g>
     </g>
     <g id="text_36">
      <!-- holiday_Veterans Day -->
      <g transform="translate(83.779063 65.97134) scale(0.1 -0.1)">
       <defs>
        <path id="DejaVuSans-56" d="M 1831 0 
L 50 4666 
L 709 4666 
L 2188 738 
L 3669 4666 
L 4325 4666 
L 2547 0 
L 1831 0 
z
" transform="scale(0.015625)"/>
       </defs>
       <use xlink:href="#DejaVuSans-68"/>
       <use xlink:href="#DejaVuSans-6f" transform="translate(63.378906 0)"/>
       <use xlink:href="#DejaVuSans-6c" transform="translate(124.560547 0)"/>
       <use xlink:href="#DejaVuSans-69" transform="translate(152.34375 0)"/>
       <use xlink:href="#DejaVuSans-64" transform="translate(180.126953 0)"/>
       <use xlink:href="#DejaVuSans-61" transform="translate(243.603516 0)"/>
       <use xlink:href="#DejaVuSans-79" transform="translate(304.882812 0)"/>
       <use xlink:href="#DejaVuSans-5f" transform="translate(364.0625 0)"/>
       <use xlink:href="#DejaVuSans-56" transform="translate(414.0625 0)"/>
       <use xlink:href="#DejaVuSans-65" transform="translate(474.720703 0)"/>
       <use xlink:href="#DejaVuSans-74" transform="translate(536.244141 0)"/>
       <use xlink:href="#DejaVuSans-65" transform="translate(575.453125 0)"/>
       <use xlink:href="#DejaVuSans-72" transform="translate(636.976562 0)"/>
       <use xlink:href="#DejaVuSans-61" transform="translate(678.089844 0)"/>
       <use xlink:href="#DejaVuSans-6e" transform="translate(739.369141 0)"/>
       <use xlink:href="#DejaVuSans-73" transform="translate(802.748047 0)"/>
       <use xlink:href="#DejaVuSans-20" transform="translate(854.847656 0)"/>
       <use xlink:href="#DejaVuSans-44" transform="translate(886.634766 0)"/>
       <use xlink:href="#DejaVuSans-61" transform="translate(963.636719 0)"/>
       <use xlink:href="#DejaVuSans-79" transform="translate(1024.916016 0)"/>
      </g>
     </g>
    </g>
    <g id="ytick_28">
     <g id="line2d_36">
      <g>
       <use xlink:href="#md1bfc700c9" x="199.19" y="52.981465" style="stroke: #000000; stroke-width: 0.8"/>
      </g>
     </g>
     <g id="text_37">
      <!-- holiday_State Fair -->
      <g transform="translate(103.2775 56.780683) scale(0.1 -0.1)">
       <use xlink:href="#DejaVuSans-68"/>
       <use xlink:href="#DejaVuSans-6f" transform="translate(63.378906 0)"/>
       <use xlink:href="#DejaVuSans-6c" transform="translate(124.560547 0)"/>
       <use xlink:href="#DejaVuSans-69" transform="translate(152.34375 0)"/>
       <use xlink:href="#DejaVuSans-64" transform="translate(180.126953 0)"/>
       <use xlink:href="#DejaVuSans-61" transform="translate(243.603516 0)"/>
       <use xlink:href="#DejaVuSans-79" transform="translate(304.882812 0)"/>
       <use xlink:href="#DejaVuSans-5f" transform="translate(364.0625 0)"/>
       <use xlink:href="#DejaVuSans-53" transform="translate(414.0625 0)"/>
       <use xlink:href="#DejaVuSans-74" transform="translate(477.539062 0)"/>
       <use xlink:href="#DejaVuSans-61" transform="translate(516.748047 0)"/>
       <use xlink:href="#DejaVuSans-74" transform="translate(578.027344 0)"/>
       <use xlink:href="#DejaVuSans-65" transform="translate(617.236328 0)"/>
       <use xlink:href="#DejaVuSans-20" transform="translate(678.759766 0)"/>
       <use xlink:href="#DejaVuSans-46" transform="translate(710.546875 0)"/>
       <use xlink:href="#DejaVuSans-61" transform="translate(758.941406 0)"/>
       <use xlink:href="#DejaVuSans-69" transform="translate(820.220703 0)"/>
       <use xlink:href="#DejaVuSans-72" transform="translate(848.003906 0)"/>
      </g>
     </g>
    </g>
    <g id="ytick_29">
     <g id="line2d_37">
      <g>
       <use xlink:href="#md1bfc700c9" x="199.19" y="43.790808" style="stroke: #000000; stroke-width: 0.8"/>
      </g>
     </g>
     <g id="text_38">
      <!-- weather_main_Smoke -->
      <g transform="translate(82.435313 47.590027) scale(0.1 -0.1)">
       <use xlink:href="#DejaVuSans-77"/>
       <use xlink:href="#DejaVuSans-65" transform="translate(81.787109 0)"/>
       <use xlink:href="#DejaVuSans-61" transform="translate(143.310547 0)"/>
       <use xlink:href="#DejaVuSans-74" transform="translate(204.589844 0)"/>
       <use xlink:href="#DejaVuSans-68" transform="translate(243.798828 0)"/>
       <use xlink:href="#DejaVuSans-65" transform="translate(307.177734 0)"/>
       <use xlink:href="#DejaVuSans-72" transform="translate(368.701172 0)"/>
       <use xlink:href="#DejaVuSans-5f" transform="translate(409.814453 0)"/>
       <use xlink:href="#DejaVuSans-6d" transform="translate(459.814453 0)"/>
       <use xlink:href="#DejaVuSans-61" transform="translate(557.226562 0)"/>
       <use xlink:href="#DejaVuSans-69" transform="translate(618.505859 0)"/>
       <use xlink:href="#DejaVuSans-6e" transform="translate(646.289062 0)"/>
       <use xlink:href="#DejaVuSans-5f" transform="translate(709.667969 0)"/>
       <use xlink:href="#DejaVuSans-53" transform="translate(759.667969 0)"/>
       <use xlink:href="#DejaVuSans-6d" transform="translate(823.144531 0)"/>
       <use xlink:href="#DejaVuSans-6f" transform="translate(920.556641 0)"/>
       <use xlink:href="#DejaVuSans-6b" transform="translate(981.738281 0)"/>
       <use xlink:href="#DejaVuSans-65" transform="translate(1036.023438 0)"/>
      </g>
     </g>
    </g>
    <g id="text_39">
     <!-- Input Feature -->
     <g transform="translate(19.000938 205.885781) rotate(-90) scale(0.1 -0.1)">
      <use xlink:href="#DejaVuSans-49"/>
      <use xlink:href="#DejaVuSans-6e" transform="translate(29.492188 0)"/>
      <use xlink:href="#DejaVuSans-70" transform="translate(92.871094 0)"/>
      <use xlink:href="#DejaVuSans-75" transform="translate(156.347656 0)"/>
      <use xlink:href="#DejaVuSans-74" transform="translate(219.726562 0)"/>
      <use xlink:href="#DejaVuSans-20" transform="translate(258.935547 0)"/>
      <use xlink:href="#DejaVuSans-46" transform="translate(290.722656 0)"/>
      <use xlink:href="#DejaVuSans-65" transform="translate(342.742188 0)"/>
      <use xlink:href="#DejaVuSans-61" transform="translate(404.265625 0)"/>
      <use xlink:href="#DejaVuSans-74" transform="translate(465.544922 0)"/>
      <use xlink:href="#DejaVuSans-75" transform="translate(504.753906 0)"/>
      <use xlink:href="#DejaVuSans-72" transform="translate(568.132812 0)"/>
      <use xlink:href="#DejaVuSans-65" transform="translate(606.996094 0)"/>
     </g>
    </g>
   </g>
   <g id="patch_32">
    <path d="M 199.19 318.04 
L 199.19 26.88 
" style="fill: none; stroke: #000000; stroke-width: 0.8; stroke-linejoin: miter; stroke-linecap: square"/>
   </g>
   <g id="patch_33">
    <path d="M 709.2 318.04 
L 709.2 26.88 
" style="fill: none; stroke: #000000; stroke-width: 0.8; stroke-linejoin: miter; stroke-linecap: square"/>
   </g>
   <g id="patch_34">
    <path d="M 199.19 318.04 
L 709.2 318.04 
" style="fill: none; stroke: #000000; stroke-width: 0.8; stroke-linejoin: miter; stroke-linecap: square"/>
   </g>
   <g id="patch_35">
    <path d="M 199.19 26.88 
L 709.2 26.88 
" style="fill: none; stroke: #000000; stroke-width: 0.8; stroke-linejoin: miter; stroke-linecap: square"/>
   </g>
   <g id="text_40">
    <!-- Which features are most important for traffic volume prediction? -->
    <g transform="translate(259.867187 20.88) scale(0.12 -0.12)">
     <defs>
      <path id="DejaVuSans-3f" d="M 1222 794 
L 1856 794 
L 1856 0 
L 1222 0 
L 1222 794 
z
M 1838 1253 
L 1241 1253 
L 1241 1734 
Q 1241 2050 1328 2253 
Q 1416 2456 1697 2725 
L 1978 3003 
Q 2156 3169 2236 3316 
Q 2316 3463 2316 3616 
Q 2316 3894 2111 4066 
Q 1906 4238 1569 4238 
Q 1322 4238 1042 4128 
Q 763 4019 459 3809 
L 459 4397 
Q 753 4575 1054 4662 
Q 1356 4750 1678 4750 
Q 2253 4750 2601 4447 
Q 2950 4144 2950 3647 
Q 2950 3409 2837 3195 
Q 2725 2981 2444 2713 
L 2169 2444 
Q 2022 2297 1961 2214 
Q 1900 2131 1875 2053 
Q 1856 1988 1847 1894 
Q 1838 1800 1838 1638 
L 1838 1253 
z
" transform="scale(0.015625)"/>
     </defs>
     <use xlink:href="#DejaVuSans-57"/>
     <use xlink:href="#DejaVuSans-68" transform="translate(98.876953 0)"/>
     <use xlink:href="#DejaVuSans-69" transform="translate(162.255859 0)"/>
     <use xlink:href="#DejaVuSans-63" transform="translate(190.039062 0)"/>
     <use xlink:href="#DejaVuSans-68" transform="translate(245.019531 0)"/>
     <use xlink:href="#DejaVuSans-20" transform="translate(308.398438 0)"/>
     <use xlink:href="#DejaVuSans-66" transform="translate(340.185547 0)"/>
     <use xlink:href="#DejaVuSans-65" transform="translate(375.390625 0)"/>
     <use xlink:href="#DejaVuSans-61" transform="translate(436.914062 0)"/>
     <use xlink:href="#DejaVuSans-74" transform="translate(498.193359 0)"/>
     <use xlink:href="#DejaVuSans-75" transform="translate(537.402344 0)"/>
     <use xlink:href="#DejaVuSans-72" transform="translate(600.78125 0)"/>
     <use xlink:href="#DejaVuSans-65" transform="translate(639.644531 0)"/>
     <use xlink:href="#DejaVuSans-73" transform="translate(701.167969 0)"/>
     <use xlink:href="#DejaVuSans-20" transform="translate(753.267578 0)"/>
     <use xlink:href="#DejaVuSans-61" transform="translate(785.054688 0)"/>
     <use xlink:href="#DejaVuSans-72" transform="translate(846.333984 0)"/>
     <use xlink:href="#DejaVuSans-65" transform="translate(885.197266 0)"/>
     <use xlink:href="#DejaVuSans-20" transform="translate(946.720703 0)"/>
     <use xlink:href="#DejaVuSans-6d" transform="translate(978.507812 0)"/>
     <use xlink:href="#DejaVuSans-6f" transform="translate(1075.919922 0)"/>
     <use xlink:href="#DejaVuSans-73" transform="translate(1137.101562 0)"/>
     <use xlink:href="#DejaVuSans-74" transform="translate(1189.201172 0)"/>
     <use xlink:href="#DejaVuSans-20" transform="translate(1228.410156 0)"/>
     <use xlink:href="#DejaVuSans-69" transform="translate(1260.197266 0)"/>
     <use xlink:href="#DejaVuSans-6d" transform="translate(1287.980469 0)"/>
     <use xlink:href="#DejaVuSans-70" transform="translate(1385.392578 0)"/>
     <use xlink:href="#DejaVuSans-6f" transform="translate(1448.869141 0)"/>
     <use xlink:href="#DejaVuSans-72" transform="translate(1510.050781 0)"/>
     <use xlink:href="#DejaVuSans-74" transform="translate(1551.164062 0)"/>
     <use xlink:href="#DejaVuSans-61" transform="translate(1590.373047 0)"/>
     <use xlink:href="#DejaVuSans-6e" transform="translate(1651.652344 0)"/>
     <use xlink:href="#DejaVuSans-74" transform="translate(1715.03125 0)"/>
     <use xlink:href="#DejaVuSans-20" transform="translate(1754.240234 0)"/>
     <use xlink:href="#DejaVuSans-66" transform="translate(1786.027344 0)"/>
     <use xlink:href="#DejaVuSans-6f" transform="translate(1821.232422 0)"/>
     <use xlink:href="#DejaVuSans-72" transform="translate(1882.414062 0)"/>
     <use xlink:href="#DejaVuSans-20" transform="translate(1923.527344 0)"/>
     <use xlink:href="#DejaVuSans-74" transform="translate(1955.314453 0)"/>
     <use xlink:href="#DejaVuSans-72" transform="translate(1994.523438 0)"/>
     <use xlink:href="#DejaVuSans-61" transform="translate(2035.636719 0)"/>
     <use xlink:href="#DejaVuSans-66" transform="translate(2096.916016 0)"/>
     <use xlink:href="#DejaVuSans-66" transform="translate(2132.121094 0)"/>
     <use xlink:href="#DejaVuSans-69" transform="translate(2167.326172 0)"/>
     <use xlink:href="#DejaVuSans-63" transform="translate(2195.109375 0)"/>
     <use xlink:href="#DejaVuSans-20" transform="translate(2250.089844 0)"/>
     <use xlink:href="#DejaVuSans-76" transform="translate(2281.876953 0)"/>
     <use xlink:href="#DejaVuSans-6f" transform="translate(2341.056641 0)"/>
     <use xlink:href="#DejaVuSans-6c" transform="translate(2402.238281 0)"/>
     <use xlink:href="#DejaVuSans-75" transform="translate(2430.021484 0)"/>
     <use xlink:href="#DejaVuSans-6d" transform="translate(2493.400391 0)"/>
     <use xlink:href="#DejaVuSans-65" transform="translate(2590.8125 0)"/>
     <use xlink:href="#DejaVuSans-20" transform="translate(2652.335938 0)"/>
     <use xlink:href="#DejaVuSans-70" transform="translate(2684.123047 0)"/>
     <use xlink:href="#DejaVuSans-72" transform="translate(2747.599609 0)"/>
     <use xlink:href="#DejaVuSans-65" transform="translate(2786.462891 0)"/>
     <use xlink:href="#DejaVuSans-64" transform="translate(2847.986328 0)"/>
     <use xlink:href="#DejaVuSans-69" transform="translate(2911.462891 0)"/>
     <use xlink:href="#DejaVuSans-63" transform="translate(2939.246094 0)"/>
     <use xlink:href="#DejaVuSans-74" transform="translate(2994.226562 0)"/>
     <use xlink:href="#DejaVuSans-69" transform="translate(3033.435547 0)"/>
     <use xlink:href="#DejaVuSans-6f" transform="translate(3061.21875 0)"/>
     <use xlink:href="#DejaVuSans-6e" transform="translate(3122.400391 0)"/>
     <use xlink:href="#DejaVuSans-3f" transform="translate(3185.779297 0)"/>
    </g>
   </g>
  </g>
 </g>
 <defs>
  <clipPath id="pfc12c41542">
   <rect x="199.19" y="26.88" width="510.01" height="291.16"/>
  </clipPath>
 </defs>
</svg>
